<?xml version="1.0" encoding="utf-8"?>
<!-- Generator: Adobe Illustrator 18.1.1, SVG Export Plug-In . SVG Version: 6.00 Build 0)  -->
<svg version="1.1" id="Layer_1" xmlns="http://www.w3.org/2000/svg" xmlns:xlink="http://www.w3.org/1999/xlink" x="0px" y="0px"
	 viewBox="0 0 300 300" enable-background="new 0 0 300 300" xml:space="preserve">
<path fill="#38133F" d="M192.4,97.7c0,23.4-19,42.4-42.4,42.4c-23.4,0-42.4-19-42.4-42.4c0-23.5,19-42.4,42.4-42.4
	C173.5,55.2,192.4,74.2,192.4,97.7z"/>
<path fill="#38133F" d="M266.3,276c5.1,0,8.4-5.4,6.1-9.9l-37.5-75c-8.5-17-17-17-25.5-17c-8.5,0-110.4,0-118.9,0s-17,0-25.5,17
	l-37.5,75c-2.3,4.6,1,9.9,6.1,9.9H266.3z"/>
</svg>
