<svg xmlns="http://www.w3.org/2000/svg" viewBox="0 0 400 400" enable-background="new 0 0 400 400"><g fill="none" stroke="#38133F" stroke-width="8" stroke-linecap="round" stroke-linejoin="round" stroke-miterlimit="10"><path d="M180.28 151.94c12.843 0 23.256 10.41 23.256 23.25 0 12.845-10.413 23.255-23.256 23.255-12.842 0-23.253-10.41-23.253-23.255 0-12.84 10.41-23.25 23.253-23.25zM250.813 221.65c0 12.85-10.4 23.25-23.258 23.25-12.822 0-23.248-10.406-23.248-23.25 0-12.85 10.433-23.25 23.248-23.25 12.863 0 23.258 10.404 23.258 23.25zM180.203 244.988c12.842 0 23.253 10.415 23.253 23.255 0 12.845-10.41 23.256-23.253 23.256s-23.256-10.412-23.256-23.257c0-12.84 10.413-23.255 23.256-23.255zM266.74 306.784c-18.47 18.223-41.616 29.06-66.74 29.06s-48.273-10.837-66.742-29.06"/><path d="M335.035 169.53v16.72c-5.59 0-10.65 2.41-14.18 6.24-27.84-96-154.82-52.33-183.18-98.33-11 44.27-53.41 31.33-61.82 95.48-3.11-2.14-6.86-3.39-10.89-3.39v-16.72c0-48.102 10.89-103.04 61.106-114.005C157.028 20.823 335.036-.51 335.036 169.53zM320.855 192.49c-3.18 3.44-5.13 8.04-5.13 13.07"/><path d="M320.255 250.26c1.77 2.11 3.99 3.85 6.5 5.05 1.91.91 4 1.53 6.19 1.77.69.07 1.38.11 2.09.11 10.62 0 19.31-8.69 19.31-19.31v-32.32c0-5.31-2.17-10.14-5.67-13.64s-8.33-5.67-13.64-5.67c-5.59 0-10.65 2.41-14.18 6.24-27.84-96-154.82-52.33-183.18-98.33-11 44.27-53.41 31.33-61.82 95.48-3.11-2.14-6.86-3.39-10.89-3.39-5.31 0-10.14 2.17-13.64 5.67s-5.67 8.33-5.67 13.64v32.32c0 10.62 8.69 19.31 19.31 19.31.71 0 1.4-.04 2.09-.11 2.19-.24 4.27-.86 6.19-1.77 2.51-1.2 4.72-2.94 6.5-5.05 0 71.054 54.03 118.23 120.25 118.23s120.25-47.175 120.25-118.23h.01zM75.855 189.64c5.07 3.49 8.41 9.33 8.41 15.92"/></g></svg>