<svg xmlns="http://www.w3.org/2000/svg" viewBox="0 0 1600 720" enable-background="new 0 0 1600 720"><g><path fill="#38133F" d="M0 720V567.605h28.33v-17.33h32v36.29h9.42v-15.7h21.33v-11.26h44.79v13.34h10v4.96h82v35.62h9.57v21.78H241v-64.44h48.67v21.33h7.2v-32.59h47.99v33.82h29v-15.52h43.81v-10.46h41.19v-17.17h51v27.63h28.99v14.29h12.82v-49.92h58.41v17.33h14.25v32.59H637v-21.33h48.67v21.33h12v-32.59h46.66v8h84v-17.33h32v36.29h9.42v-15.7h21.33v-11.26h44.79v13.34h10v4.96h57.244v49.514l93.756-.002v-67.813h47.99v33.82h29v-15.52h43.81v-10.46h41.19v-17.17h51v27.63h28.99v14.29h12.82v-49.92h58.41v17.33h14.25v32.59H1437v-21.33h48.67v21.33h12v-32.59h46.66v11.26H1600V720z"/><path fill="#FFC06E" d="M1505.333 567.94H1512v8h-6.667zM1505.333 580.902H1512v8h-6.667zM844.212 558.608h6.667v8h-6.668zM878.878 579.274h6.667v8h-6.667zM1581.778 578.902h7.556v10h-7.556zM967.555 602.085h7.556v10h-7.555zM591.333 552.608h8v10h-8zM705.333 567.94H712v8h-6.667zM705.333 580.902H712v8h-6.667zM44.212 558.608h6.667v8H44.21zM190.316 586.79h7.556v10h-7.556zM167.555 602.085h7.556v10h-7.555zM248.87 602.085h10v10h-10zM248.87 581.752h10v10h-10z"/><g fill="#F76A52"><path d="M983.17 594.695h-40.8v8.75h-9v-27h9v4.46h1v-5.46h-10v-13.34h-40.29v1h39.29v40.34h-16.46v-30.08h-43.66v30.08H757.83v-15.04h-39.66v15.54h1v-14.54h37.66v15.04h186.54v-8.75h38.8v21.33h11.166v-1H983.17v-21.33zm-109.92-20.33h41.66v29.08h-41.66v-29.08zM1600 574.366v-1h-58.17v-11.26h-41.66v32.59h-17v-21.33h-43.67v21.33h-17.67v-32.59h-14.25v-17.33h-53.41v49.92h-17.82v-14.29h-28.99v-27.63h-46v17.17h-41.19v10.46h-43.81v15.52h-34v-33.82h-42.99v75.7h-12.7v1h13.7v-21.78h92.13v-21.33h162.67v-49.92h51.41v70.75h1v-53.42h13.25v32.59h18.67v20.83h1v-42.16h41.67v41.66h-22.306v1H1600v-1h-116.83v-11.584h35.997v-15.04h37.667v15.04H1600v-1h-42.167v-15.04h-16.003v-14.035H1600zm-378.83-3.42h41.19v-17.17h44v27.63h28.99v13.29h-96.99v-14.29h-17.19v-9.46zm-120.8-7.84h40.99v33.82h35v19.1h-75.99v-52.92zm91.13 31.59v21.33h-14.14v-34.62h60v13.29h-45.86zm326.666-6.294v15.04h-34.997v-7.747h18v-32.59h39.66v25.297h-22.664zM1390.833 563.108h9v-11h-9v11zm1-10h7v9h-7v-9zM1164.833 601.585v9h7.667v-9h-7.667zm6.667 8h-5.667v-7h5.667v7zM1262.36 580.402h-7.668v9h7.667v-9zm-1 8h-5.668v-7h5.667v7zM1275.833 580.402h-7.667v9h7.667v-9zm-1 8h-5.667v-7h5.667v7zM814.5 574.735h-7.667v9h7.667v-9zm-1 8h-5.667v-7h5.667v7zM1275.833 562.108h-7.667v9h7.667v-9zm-1 8h-5.667v-7h5.667v7zM989.058 597.29h8.556v-11h-8.556v11zm1-10h6.556v9h-6.556v-9zM1105.944 579.735h8.556v-11h-8.556v11zm1-10h6.556v9h-6.556v-9zM1464.333 578.402v11h11v-11h-11zm10 10h-9v-9h9v9zM1237.36 638.308h1v-21.28h102.994v10.39h1v-11.39H1237.36zM915.412 617.03H959.5v7.517h1v-8.518h-45.088zM683.17 573.366H639.5v42.66h-31.92v-71.25h-53.41v49.92h-17.82v-14.29h-28.99v-27.63h-46v17.17h-41.19v10.46h-43.81v15.52h-34v-33.82h-42.99v32.59h-12.7v1h12.7v42.61h1v-21.28h92.13v-21.33h162.67v-49.92h51.41v71.25h32.92v10.394h1v-53.053h41.67v53.053h1v-10.394H800v-1H683.17v-42.66zm-262-2.42h41.19v-17.17h44v27.63h28.99v13.29h-96.99v-14.29h-17.19v-9.46zm-120.8-7.84h40.99v33.82h35v19.1h-75.99v-52.92zm91.13 31.59v21.33h-14.14v-34.62h60v13.29H391.5zM183.17 594.695H159.5v8.75h-26.13v-41.34H93.58v8.76h1v-7.76h37.79v40.34h-16.46v-30.08H72.25v30.08H0v1h72.25v4.42h1v-34.5h41.66v34.5h1v-4.42h44.59v-8.75h21.67v21.33h53.27v-1h-52.27zM814.5 589.406h17.33v-35.63h25v35.79h1v-36.79h-27v35.63H813.5v6.29H800v1h14.5zM620.83 595.195h1v-33.09h-11.75v1h10.75zM701.17 563.105h39.66v21.8h1v-22.8h-41.66v32.59h-14.5v1h15.5zM364.833 601.585v9h7.667v-9h-7.667zm6.667 8h-5.667v-7h5.667v7zM462.36 580.402h-7.668v9h7.667v-9zm-1 8h-5.668v-7h5.667v7zM475.833 580.402h-7.667v9h7.667v-9zm-1 8h-5.667v-7h5.667v7zM78.377 587.774h7.667v-9h-7.667v9zm1-8h5.667v7h-5.667v-7zM475.833 562.108h-7.667v9h7.667v-9zm-1 8h-5.667v-7h5.667v7zM789.833 578.402h-8.556v11h8.556v-11zm-1 10h-6.556v-9h6.556v9zM305.944 579.735h8.556v-11h-8.556v11zm1-10h6.556v9h-6.556v-9zM644.833 589.402h11v-11h-11v11zm1-10h9v9h-9v-9zM141.87 617.03h17.63v10.39h1v-11.39h-18.63zM14.5 590.065h22.83v-1h-5.5v-35.29h25v35.79h1v-36.79h-27v36.29H13.5v5.63H0v1h14.5zM224.37 613.525h1v-33.12h-79.5v1h78.5z"/></g></g><g><path fill="none" stroke="#8C8C8C" stroke-width="2" stroke-miterlimit="10" d="M523.85 328.9V209.895c-24.184-.204-58.094-2.957-87.9-14.34-22.585-8.626-38.36-20.49-47.1-35.382M523.85 382.906v17.99M523.85 418.906v17.99M523.85 454.906v17.99M523.85 490.906v17.99M523.85 526.906v17.99M523.85 562.906v17.99M523.85 598.906v17.99"/><path fill="#FFC06E" d="M511.85 328.906h24v18h-24zM511.85 364.906h24v18h-24zM511.85 400.906h24v18h-24zM511.85 436.906h24v18h-24zM511.85 472.906h24v18h-24zM511.85 508.906h24v18h-24z"/><g fill="#FFC06E"><path d="M459.196 486.68c.333.047.666.093 1 .138v-18c-.334-.045-.667-.09-1-.137v18zM481.812 471.137c-1.106-.09-2.21-.186-3.308-.283v18c1.1.098 2.2.192 3.308.283v-18zM471.004 470.12c-.72-.077-1.44-.154-2.154-.234v18c.715.08 1.435.157 2.154.233v-18zM526.773 472.906v18h9.077v-18h-9.077zM492.62 471.904c-1.493-.09-2.98-.186-4.463-.288v18c1.482.103 2.97.198 4.462.288v-18zM525.042 472.902c-2.64-.008-5.283-.033-7.923-.076v18c2.64.043 5.28.068 7.922.076v-18zM514.234 472.772c-2.26-.047-4.517-.108-6.77-.183v18c2.252.073 4.51.135 6.77.182v-18zM503.427 472.445c-1.877-.075-3.75-.16-5.615-.254v18c1.866.095 3.738.18 5.615.255v-18z"/></g><g fill="#FFC06E"><path d="M525.043 508.902c-1.487-.005-2.975-.014-4.462-.03v18c1.488.017 2.976.025 4.463.03v-18zM530.235 508.906h5.615v18h-5.615zM503.427 508.445c-.72-.03-1.437-.06-2.154-.092v18c.718.03 1.435.063 2.154.092v-18zM514.235 508.772c-1.103-.022-2.206-.05-3.308-.08v18c1.102.03 2.204.058 3.308.08v-18zM491.62 525.845l1 .06v-18l-1-.06v18z"/></g><path fill="#38133F" d="M526.85 349.906h12v-24h-12v-119c-63.677 0-128.87-17.248-141-61.496h-60v24h-24l-33.614 33.613v469.692H538.85v-58.81h-12v-12h12v-24h-12v-12h12v-24h-12v-12h12v-24h-12v-12h12v-24h-12v-12h12v-24h-12v-12h12v-24h-12v-12h12v-24h-12v-12z"/><g fill="#FFC06E"><path d="M523.853 421.893v12c-4.86-.02-9.74-.1-14.58-.25v-12c4.84.15 9.72.23 14.58.25zM507.793 421.593v12c-1.84-.05-3.67-.12-5.5-.2v-12c1.83.08 3.66.15 5.5.2zM499.323 421.263v12c-1.33-.06-2.67-.13-4-.21v-12c1.33.08 2.67.15 4 .21zM490.853 420.793v12c-.84-.05-1.67-.11-2.5-.17v-12c.83.06 1.66.12 2.5.17zM482.383 420.183v12l-1-.09v-12l1 .09z"/></g><g fill="#FFC06E"><path d="M435.678 320.522c-1.51-.337-2.998-.685-4.462-1.043v18c1.464.357 2.95.705 4.462 1.042v-18zM402.255 327.173c.33.175.66.35 1 .523v-18c-.34-.173-.67-.35-1-.523v18zM480.485 327.027v18c15.01 1.275 30.732 1.88 46.365 1.88h9v-18h-9c-15.632 0-31.353-.604-46.365-1.88zM414.063 314.35c-.728-.268-1.448-.537-2.154-.812v18c.706.274 1.426.544 2.153.81v-18zM424.87 317.813c-1.12-.315-2.223-.636-3.308-.966v18c1.084.33 2.188.65 3.308.966v-18zM478.91 326.89c-3.06-.27-6.088-.57-9.078-.897v18c2.99.328 6.018.627 9.077.897v-18zM446.485 322.68c-1.9-.34-3.772-.693-5.615-1.062v18c1.843.368 3.716.722 5.615 1.062v-18zM468.1 325.8c-2.673-.306-5.316-.633-7.922-.984v18c2.606.352 5.25.68 7.923.983v-18zM457.293 324.413c-2.287-.327-4.546-.673-6.77-1.04v18c2.224.367 4.482.713 6.77 1.04v-18z"/></g><g fill="#FFC06E"><path d="M430.275 355.247c-1.117-.28-2.22-.565-3.308-.857v18c1.088.292 2.19.578 3.308.857v-18zM441.082 357.66c-1.508-.3-2.995-.61-4.462-.932v18c1.467.32 2.954.63 4.462.932v-18zM407.66 365.777c.33.146.663.29 1 .435v-18c-.337-.144-.67-.29-1-.435v18zM419.467 352.195c-.727-.23-1.445-.468-2.154-.707v18c.71.24 1.427.476 2.154.707v-18zM485.89 363.456v18c13.36.983 27.194 1.45 40.96 1.45h9v-18h-9c-13.766 0-27.6-.467-40.96-1.45zM451.89 359.594c-1.896-.304-3.768-.62-5.615-.952v18c1.847.33 3.72.648 5.615.952v-18zM473.505 362.38c-2.67-.27-5.313-.562-7.923-.875v18c2.61.313 5.253.604 7.923.874v-18zM484.313 363.336c-3.054-.235-6.082-.496-9.077-.786v18c2.995.29 6.023.55 9.077.786v-18zM462.697 361.146c-2.284-.293-4.542-.603-6.77-.93v18c2.228.327 4.486.637 6.77.93v-18z"/></g><g fill="#FFC06E"><path d="M442.083 393.857c-1.114-.217-2.215-.44-3.308-.67v18c1.092.23 2.194.453 3.308.67v-18zM497.698 400.185v18c9.623.486 19.405.72 29.152.72h9v-18h-9c-9.747 0-19.53-.233-29.152-.72zM452.89 395.755c-1.503-.235-2.99-.48-4.462-.734v18c1.473.254 2.96.5 4.462.735v-18zM431.275 391.494c-.724-.178-1.442-.357-2.154-.54v18c.713.183 1.43.362 2.155.54v-18zM419.467 406.195c.33.106.666.21 1 .314v-18c-.334-.105-.67-.21-1-.315v18zM485.313 399.412c-2.66-.2-5.304-.417-7.923-.658v18c2.618.24 5.26.46 7.923.658v-18zM463.698 397.274c-1.89-.237-3.762-.485-5.615-.747v18c1.853.262 3.726.51 5.615.747v-18zM496.12 400.102c-3.044-.163-6.072-.35-9.076-.564v18c3.005.214 6.032.4 9.077.564v-18zM474.505 398.48c-2.278-.225-4.533-.467-6.77-.724v18c2.236.257 4.492.5 6.77.724v-18z"/></g><g fill="#FFC06E"><path d="M459.534 432.726c-1.11-.15-2.212-.308-3.308-.468v18c1.095.16 2.198.316 3.308.468v-18zM448.726 431.07c-.722-.123-1.44-.248-2.154-.376v18c.714.128 1.432.253 2.154.376v-18zM436.918 446.793c.333.072.664.146 1 .218v-18c-.336-.07-.667-.145-1-.217v18zM515.15 436.793v18c3.897.075 7.8.113 11.7.113h9v-18h-9c-3.9 0-7.803-.038-11.7-.113zM513.572 436.758c-3.033-.067-6.06-.158-9.077-.272v18c3.017.114 6.044.205 9.077.272v-18zM491.956 435.864c-2.27-.14-4.526-.293-6.77-.462v18c2.244.17 4.5.323 6.77.462v-18zM502.764 436.417c-2.652-.108-5.294-.236-7.923-.383v18c2.63.146 5.272.274 7.924.383v-18zM470.34 434.048c-1.495-.162-2.984-.33-4.46-.507v18c1.476.178 2.965.346 4.46.508v-18zM481.15 435.082c-1.884-.157-3.756-.325-5.616-.504v18c1.86.18 3.732.347 5.615.504v-18z"/></g><path fill="#FFC06E" d="M523.854 209.893v116.01c-12.69-.07-25.4-.53-37.7-1.43v-117.06c12.31 1.57 25.02 2.37 37.7 2.48zM484.924 207.253v117.13c-2.86-.22-5.7-.46-8.5-.73v-117.65c2.81.46 5.64.88 8.5 1.25zM473.704 205.543v117.86c-2.36-.24-4.69-.5-7-.77v-118.42c2.31.48 4.65.92 7 1.33zM462.484 203.303v118.81c-1.85-.24-3.69-.49-5.5-.75v-119.37c1.81.46 3.65.9 5.5 1.31zM451.264 200.453v120.04c-1.35-.22-2.68-.45-4-.68v-120.54c1.32.41 2.65.8 4 1.18zM440.034 196.863v121.58c-.84-.17-1.68-.33-2.5-.52v-121.98c.83.32 1.66.62 2.5.92zM428.814 192.323v123.55c-.34-.09-.67-.17-1-.26v-123.75l1 .46z"/><g fill="#FFC06E"><path d="M472.358 359.262v-12c-1.34-.14-2.674-.283-4-.433v12c1.326.148 2.66.293 4 .432zM482.246 360.173v-12c-1.844-.15-3.678-.31-5.5-.48v12c1.822.17 3.656.33 5.5.48zM523.853 349.893v12c-10.16-.05-20.35-.36-30.33-.94v-12c9.98.58 20.17.89 30.33.94zM485.134 348.398v12c2.32.175 4.654.334 7 .477v-12c-2.346-.143-4.68-.302-7-.477zM452.582 356.705v-12l-1-.16v12l1 .16zM462.47 358.116v-12c-.837-.107-1.67-.217-2.5-.33v12c.83.113 1.663.223 2.5.33z"/></g><g fill="#FFC06E"><path d="M465.393 382.473v12l-1-.12v-12l1 .12zM485.133 384.393v12c-1.34-.1-2.68-.2-4-.32v-12c1.32.12 2.66.22 4 .32zM475.263 383.543v12c-.84-.08-1.67-.16-2.5-.25v-12c.83.09 1.66.17 2.5.25zM495.003 385.043v12c-1.84-.11-3.68-.22-5.5-.34v-12c1.82.12 3.66.23 5.5.34zM504.873 385.493v12c-2.34-.08-4.67-.19-7-.31v-12c2.33.12 4.66.23 7 .31zM523.853 385.877c-5.877-.03-11.765-.13-17.61-.334v12c5.845.205 11.733.305 17.61.334v-12z"/></g><g fill="#FFC06E"><path d="M301.854 294.906h24v18h-24zM301.854 330.906h24v15.714h-24zM301.854 366.907h24v13.43h-24zM301.854 402.906h24v11.143h-24zM301.854 438.906h24v8.857h-24zM301.854 474.75h24v6.57h-24zM301.854 510.906h24v4.286h-24zM301.854 546.906h24v2h-24z"/></g><g fill="#FFC06E"><path d="M271.134 330.906h3v15.714h-3zM271.134 366.907h3v13.43h-3zM271.134 402.906h3v11.143h-3zM271.134 438.906h3v8.857h-3zM271.134 474.75h3v6.57h-3zM271.134 510.906h3v4.286h-3zM271.134 546.906h3v2h-3z"/></g><g fill="#FFC06E"><path d="M361.85 294.906h24v18h-24zM361.85 330.906h24v15.714h-24zM361.85 366.907h24v13.43h-24zM361.85 402.906h24v11.143h-24zM361.85 438.906h24v8.857h-24zM361.85 474.75h24v6.57h-24zM361.85 510.906h24v4.286h-24zM361.85 546.906h24v2h-24z"/></g><path fill="#FFC06E" d="M325.85 292.41h-2v-117h-21.996v-2h23.996zM323.85 294.906h2v33h-2zM323.85 330.906h2v33.715h-2zM323.85 366.906h2v18h-2zM323.85 387.906h2v6h-2zM323.85 396.906h2v3h-2zM328.85 148.41h54v72.267h-54zM328.85 221.33h54v7.386h-54zM328.85 230.445h54v6.31h-54zM328.85 239.56h54v5.23h-54zM328.85 248.676h54v4.154h-54zM328.85 257.792h54v3.076h-54zM328.85 266.906h54v2h-54zM400.25 243.906h18v48h-18z"/><path fill="#38133F" d="M421.25 240.906v54h-24c9.743 7.918 40.923 25 108.6 25v-58c-55 0-84.6-21-84.6-21z"/><g fill="#FFC06E"><path d="M502.854 264.883v46c-8.67-.11-16.68-.7-24-1.61v-46.1c7.34.97 15.35 1.59 24 1.71zM476.854 262.903v46.11c-6.58-.88-12.59-2.01-18-3.27v-46.31c5.45 1.34 11.45 2.54 18 3.47zM456.854 258.923v46.34c-4.42-1.08-8.43-2.24-12-3.4v-46.54c3.62 1.24 7.62 2.47 12 3.6zM442.854 254.623v46.57c-2.17-.74-4.17-1.48-6-2.19v-46.7c1.85.77 3.85 1.54 6 2.32zM434.854 251.463v46.74c-.7-.28-1.36-.56-2-.84v-46.78c.64.29 1.31.58 2 .88z"/></g><path fill="#FFC06E" d="M271.234 204.02v56.822l30.62-30.62V173.41zM271.234 296.328l30.62-30.62v-2.83l-30.62 30.622zM271.234 272.67l30.62-30.62v-9.428l-30.62 30.62zM271.234 284.5l30.62-30.62v-6.13l-30.62 30.62z"/></g><g><path fill="#38133F" d="M1443 491.24v152.33h-391.33v-50.16c0-4.51-3.66-8.17-8.17-8.17s-8.17 3.66-8.17 8.17v50.16H1021l7.06-75.4c-45.77-7.11-48.39-27.6-48.39-27.6h161.66v-40.33s13.79-2.51 44.67-4.88v-76.29c121.5 0 171-18.5 171-18.5h24v15.75l32.67 8.92v66H1443z"/><path fill="#FFC06E" d="M1067 643.57h-2v-77h150V622.9h-2V568.57h-146zM1391 566.57h-75v37.5h2v-35.5h71v45.5h2zM1263.808 419.23v72.522c1.48-.032 2.968-.063 4.462-.093v-72.794c-1.468.125-2.956.246-4.462.364zM1296.23 415.95v75.344l1-.005v-75.47l-1 .13zM1189 422.065v73.062c9.54-.7 19.558-1.302 30-1.813v-71.717c-9.46.277-19.448.442-30 .468zM1285.423 417.216v74.177c.717-.01 1.434-.017 2.154-.024v-74.39l-2.154.236zM1274.615 418.304v73.24c1.104-.018 2.197-.038 3.308-.055v-73.502c-1.09.107-2.193.212-3.308.316zM1220.577 421.55v71.687c2.992-.144 6.014-.28 9.077-.408v-71.6c-2.97.118-5.992.226-9.077.32zM1253 420.008v72.012c1.858-.05 3.735-.1 5.615-.145v-72.253c-1.842.134-3.717.26-5.615.386zM1231.385 421.16v71.595c2.615-.106 5.258-.206 7.923-.3v-71.658c-2.594.13-5.235.25-7.923.362zM1242.192 420.647v71.71c2.24-.077 4.495-.15 6.77-.218v-71.877c-2.218.134-4.476.263-6.77.384zM1168.667 540.57v-22.667c21.583-12.084 60.024-20.662 140.667-20.662v-3.003c-103.004.13-153.705 6.836-165 8.554v37.778h24.333zM1115.6 643.57h2v-27.5h-8l6 6zM1128.8 643.57h2v-27.5h-8l6 6zM1142 643.57h2v-27.5h-8l6 6zM1155.2 643.57h2v-27.5h-8l6 6zM1168.4 643.57h2v-27.5h-8l6 6zM1435.725 543.82l.327-1.25H982.328l.846 1.492c4.174 7.368 20.308 24.507 79.826 24.507v-2c-54.655 0-71.867-14.358-77.148-22h447.574c-2.386 7.502-10.835 22-40.427 22v2c32.735 0 40.784-17.308 42.725-24.75zM1314.333 496.238h28.266v-2h-30.267v46.33h2zM1360 441.05h18v4.153h-18zM1360 447.203h18v3.076h-18zM1360 452.28h18v2h-18zM1360 403.57h18v35.478h-18zM1439 493.236h2v34h-2zM1439 530.236h2v33.715h-2zM1439 566.236h2v18h-2zM1409.667 497.236h2v6h-2zM1409.667 506.236h2v3h-2zM1425.25 505.07h9.25v9.25h-9.25zM1381 418.39v2.08l28.67 7.82v66.95h2v-68.48zM1413.67 493.236H1440v2h-26.33zM1031.938 570.73c9.27 1.22 19.714 1.84 31.062 1.84h3v-2h-3c-11.68 0-22.387-.66-31.823-1.96l-1.035-.144-2.565 27.353 1.99.187 2.37-25.278zM1027.49 597.62l1.992.188-.593 6.304-1.992-.188zM1026.73 605.73l1.992.187-.35 3.713-1.99-.188zM1026.18 611.34l1.99.186-.25 2.692-1.992-.186zM1053.67 614.793h2v6.305h-2zM1053.67 622.902h2v3.713h-2zM1053.67 628.437h2v2.69h-2zM1055.67 593.4c0-6.706-5.46-12.16-12.17-12.16v2c5.608 0 10.17 4.557 10.17 10.16v19.352h2V593.4zM1041.674 583.402l-.358-1.967c-1.792.325-3.52 1.07-4.997 2.15l1.18 1.614c1.235-.903 2.678-1.526 4.174-1.798zM1275 566.57h-8v16.187h2V568.57h4v59.867h2zM1262 572.57h-35.607v23.343h2V574.57H1260v31.3h2zM1223.196 568.57H1238c29.285 0 36.87-20.46 36.943-20.667l-1.886-.668c-.068.193-7.17 19.334-35.057 19.334h-16.804v29.343h2V568.57zM1274 572.57h34v2h-34zM1341.6 527.236h2v13.333h-2zM1377 470.57h2v70h-2zM1154.155 567.57c-6.917-7.474-12.514-15.552-16.65-24h-4.71c3.89 8.41 9.145 16.48 15.65 24h5.71zM1155.393 567.57h5.37c-6.873-7.488-12.444-15.564-16.56-24h-4.45c1.756 3.822 3.785 7.59 6.115 11.27 2.785 4.4 5.986 8.646 9.525 12.73zM1130.812 543.57h-5.076c3.89 8.42 9.163 16.49 15.68 24h6.152c-6.965-7.46-12.6-15.538-16.756-24zM1063 567.57h77.98c-7.014-7.446-12.685-15.524-16.864-24h-5.428c3.844 8.33 9.033 16.308 15.45 23.733-6.944-7.357-12.56-15.346-16.712-23.734h-5.793c2.054 4.456 4.49 8.81 7.3 13.03-3.042-4.207-5.693-8.564-7.936-13.03h-6.27c1.333 2.876 2.82 5.723 4.478 8.525-1.8-2.787-3.427-5.634-4.886-8.526h-6.507c.682 1.463 1.393 2.92 2.157 4.36-.83-1.44-1.604-2.897-2.346-4.36H984.056c4.17 7.355 20.11 24 78.944 24zM1167.084 567.57c-6.87-7.5-12.393-15.564-16.448-24h-3.988c3.85 8.408 9.09 16.465 15.612 24h4.824zM1181.658 543.57c3.804 8.367 8.993 16.413 15.484 24h2.648c-6.677-7.573-12.02-15.62-15.933-24h-2.2zM1173.665 567.57c-6.82-7.515-12.302-15.58-16.335-24h-3.63c3.85 8.396 9.073 16.456 15.58 24h4.385zM1193.433 567.57c-6.676-7.558-12.058-15.62-16.027-24h-2.554c3.843 8.365 9.05 16.424 15.515 24h3.066zM1186.844 567.57c-6.724-7.543-12.14-15.606-16.13-24h-2.912c3.845 8.377 9.06 16.435 15.54 24h3.502zM1180.255 567.57c-6.772-7.53-12.22-15.593-16.232-24h-3.272c3.847 8.388 9.07 16.444 15.564 24h3.94zM1390 546.57v2h27.165c-2.342 7.223-9.632 18-24.165 18v2c25.482 0 37.588-13.495 40.43-20.63l.544-1.37H1390z"/></g></svg>