<svg xmlns="http://www.w3.org/2000/svg" viewBox="0 0 1600 720" enable-background="new 0 0 1600 720"><g><path fill="#FFC06E" d="M1576.614 512.8v4.02h-42v2.797h-13.025v2.432h-8.976v-5.23h-20v-4.825h-28v9.25h-9.025v-2.7h-46.976v-1.322h-66v4.94h-49.025v-4.825h-58v2.412h-94v-5.227h-80v3.62h-60v2.814h-30v-4.826h-27v7.24h-52.976v-3.217h-49v-7.126h-68v3.104H743.59v4.425h-22.976v-.115H701.59v-5.99h-71.624v7.197h-41.352v3.018H535.59v-5.317h-18.6v-4.135h-90.376v7.64h-94v-8.043h-54v-4.02h-42v4.423h-28v-5.228h-78v8.043h-40v-5.63H0v92.834h1600V512.8z"/><path fill="#F76A52" d="M546.364 528.118v16.033h-24.51V527.086h-74.993v10.61H405.67v6.456H361.86v9.588h-4.992V532.85h-72v6.952H229v4.35h-71.125v-3.065h-10v-8.237H79.08v6.952h-6.745v-12.717h-56v10.707H0v100.536h1600v-98.526h-43.665v-6.952h-70.667v6.952h-49.333v-6.952h-14.254v-10.708h-82.412v22.008h-17.813V527.086h-74.994v10.61h-41.192v6.456h-43.807v9.588h-4.992V532.85h-72v6.952H1029v4.35h-71.125v-3.065h-10v-8.237H879.08v6.952h-6.745v-12.717h-56v10.707H785v2.01h-28.665v-6.952h-70.667v6.952h-49.333v-6.952H622.08v-4.732z"/><path fill="#AF1E59" d="M47.546 562.606v-20.44h51.788v24.654h18v-16.14H160v16.14h18.667v-24.654h14.254v-13.114h52.414v37.768h18.813v-10.814h29v-20.902h44.994v12.993h41.194v7.91h43.807v11.74h34.994v-25.58h42v24.653h13.2v-16.14H556v48.76h9.554v-16.48h9.573v-26.954h82v-3.753h10v-10.087h38.794v8.514h21.334v6.033h16.86v-15.908h24.553v7.413H800v10.39h54.364v-16.442h44.97v24.654h18v-16.14H960v16.14h18.667v-5.773h14.254v11h52.414v-5.227h18.813v-10.814h29v-2.73h44.994v-5.18h41.194v7.91h43.807v11.742h34.994v-25.582h42v24.654h13.2v-16.14H1356v48.76h9.554v-16.48h9.573v-26.954h82v-3.753h10v-10.087h38.794v8.514h21.334v11.883h13.076v-27.46h28.337v13.115H1600V720H0V562.606z"/></g></svg>