<svg xmlns="http://www.w3.org/2000/svg" viewBox="0 0 1600 900" enable-background="new 0 0 1600 900"><g><path fill="#F15A24" d="M0-60h1600v960H0z"/><circle fill="#FFB205" cx="1040" cy="598.906" r="171"/><path fill="#fff" d="M1572.4 645.61c.995-4.647 1.53-9.466 1.53-14.41 0-37.462-30.033-67.89-67.332-68.566-18.324-51.954-67.844-89.19-126.07-89.19-44.886 0-84.602 22.128-108.84 56.07-15.69-5.19-32.46-8.01-49.89-8.01-54.172 0-101.997 27.146-130.64 68.57h-50.65c-32.612 0-59.537 25.514-61.843 57.566h-23.047c-7.803 0-15.1 2.26-21.283 6.148-7.822-24.606-30.848-42.435-58.045-42.435-3.23 0-6.402.257-9.497.74-18.22-21.258-45.266-34.732-75.46-34.732-.91 0-1.815.015-2.72.04-28.94-38.77-75.177-63.875-127.28-63.875-27.022 0-52.463 6.76-74.736 18.67-18.424-9.576-39.356-14.995-61.556-14.995-22.678 0-44.033 5.656-62.744 15.623-34.464-44.094-88.14-72.443-148.443-72.443-72.77 0-135.892 41.285-167.24 101.705-9.328-2.9-19.243-4.46-29.523-4.46-25.03 0-47.894 9.26-65.364 24.535-7.29-1.18-14.77-1.8-22.393-1.8-10.065 0-19.876 1.076-29.335 3.105V900h1600V663.8c-6.072-9.517-16.03-16.344-27.597-18.19z"/></g><g><path fill="#FFC06E" d="M1576.614 692.8v4.02h-42v2.798h-13.025v2.43h-8.976v-5.227h-20v-4.825h-28v9.25h-9.025v-2.7h-46.976v-1.32h-66v4.94h-49.025v-4.827h-58v2.413h-94v-5.227h-80v3.62h-60v2.814h-30v-4.826h-27v7.24h-52.976v-3.217h-49v-7.126h-68v3.104H743.59v4.425h-22.976v-.115H701.59v-5.99h-71.624v7.197h-41.352v3.018H535.59v-5.316h-18.6v-4.137h-90.376v7.64h-94v-8.043h-54v-4.02h-42v4.423h-28v-5.228h-78v8.043h-40v-5.63H0V900h1600V692.8z"/><path fill="#F76A52" d="M546.364 708.118v16.033h-24.51V707.086h-74.993v10.61H405.67v6.456H361.86v9.588h-4.992V712.85h-72v6.952h-55.866v4.35h-71.127v-3.065h-10v-8.237H79.082v6.952h-6.747v-12.717h-56v10.708H.002V900h1600V719.802h-43.667v-6.952h-70.667v6.952h-49.332v-6.952h-14.254v-10.707h-82.412V724.15h-17.813V707.086h-74.994v10.61h-41.192v6.456h-43.807v9.588h-4.992V712.85h-72v6.952H1029v4.35h-71.125v-3.065h-10v-8.237H879.08v6.952h-6.745v-12.717h-56v10.708H785v2.01h-28.665v-6.953h-70.667v6.952h-49.332v-6.952H622.08v-4.732z"/><path fill="#AF1E59" d="M47.546 742.606v-20.44h51.788v24.654h18v-16.14H160v16.14h18.668v-24.654h14.253v-13.114h52.414v37.768h18.814v-10.814h29v-20.902h44.993v12.993h41.194v7.91h43.807v11.74h34.994v-25.58h42v24.653h13.2v-16.14H556v48.76h9.554v-16.48h9.574v-26.954h82v-3.752h10v-10.088h38.793v8.514h21.334v6.034h16.86v-15.91h24.554v7.414H800v10.39h54.364v-16.442h44.97v24.654h18v-16.14H960v16.14h18.668v-5.773h14.253v11h52.414v-5.227h18.813v-10.814h29v-2.73h44.994v-5.18h41.194v7.91h43.807v11.742h34.994v-25.582h42v24.654h13.2v-16.14H1356v48.76h9.554v-16.48h9.574v-26.954h82v-3.752h10v-10.088h38.793v8.514h21.334v11.883h13.076v-27.46h28.338v13.115H1600V900H0V742.606z"/></g><g><g><path fill="#38133F" d="M0 900V747.605h28.33v-17.33h32v36.29h9.42v-15.7h21.33v-11.26h44.79v13.34h10v4.96h82v35.62h9.57v21.78H241v-64.44h48.67v21.33h7.2v-32.59h47.99v33.82h29v-15.52h43.81v-10.46h41.19v-17.17h51v27.63h28.99v14.29h12.82v-49.92h58.41v17.33h14.25v32.59H637v-21.33h48.67v21.33h12v-32.59h46.66v8h84v-17.33h32v36.29h9.42v-15.7h21.33v-11.26h44.79v13.34h10v4.96h57.244v49.514h93.756v-67.815h47.99v33.82h29v-15.52h43.81v-10.46h41.19v-17.17h51v27.63h28.99v14.29h12.82v-49.92h58.41v17.33h14.25v32.59H1437v-21.33h48.67v21.33h12v-32.59h46.66v11.26H1600V900z"/><path fill="#FFC06E" d="M1505.333 747.942H1512v8h-6.667zM1505.333 760.902H1512v8h-6.667zM844.212 738.608h6.667v8h-6.668zM878.878 759.275h6.667v8h-6.667zM1581.778 758.902h7.556v10h-7.556zM967.556 782.085h7.556v10h-7.556zM591.333 732.608h8v10h-8zM705.333 747.942H712v8h-6.667zM705.333 760.902H712v8h-6.667zM44.212 738.608h6.667v8H44.21zM190.316 766.79h7.556v10h-7.556zM167.556 782.085h7.556v10h-7.556zM248.87 782.085h10v10h-10zM248.87 761.752h10v10h-10z"/><g fill="#F76A52"><path d="M1600 754.366v-1h-58.17v-11.26h-41.66v32.59h-17v-21.33h-43.67v21.33h-17.67v-32.59h-14.25v-17.33h-53.41v49.92h-17.82v-14.29h-28.99v-27.63h-46v17.17h-41.19v10.46h-43.81v15.52h-34v-33.82h-42.99v75.7h-12.7v1h13.7v-21.78h92.13v-21.33h162.67v-49.92h51.41v70.75h1v-53.42h13.25v32.59h18.67v20.83h1v-42.16h41.67v41.66h-22.306v1H1600v-1h-116.83v-11.584h35.997v-15.04h37.666v15.04H1600v-1h-42.167v-15.04h-16.003v-14.035H1600zm-378.83-3.42h41.19v-17.17h44v27.63h28.99v13.29h-96.99v-14.29h-17.19v-9.46zm-120.8-7.84h40.99v33.82h35v19.1h-75.99v-52.92zm91.13 31.59v21.33h-14.14v-34.62h60v13.29h-45.86zm326.667-6.294v15.04h-34.997v-7.747h18v-32.59h39.66v25.297h-22.663zM1390.833 743.108h9v-11h-9v11zm1-10h7v9h-7v-9zM1164.833 781.585v9h7.667v-9h-7.667zm6.667 8h-5.667v-7h5.667v7zM1262.36 760.402h-7.668v9h7.667v-9zm-1 8h-5.668v-7h5.667v7zM1275.833 760.402h-7.666v9h7.666v-9zm-1 8h-5.666v-7h5.666v7zM814.5 754.735h-7.667v9h7.667v-9zm-1 8h-5.667v-7h5.667v7zM1275.833 742.108h-7.666v9h7.666v-9zm-1 8h-5.666v-7h5.666v7zM989.06 777.29h8.554v-11h-8.555v11zm1-10h6.554v9h-6.555v-9zM1105.944 759.735h8.556v-11h-8.556v11zm1-10h6.556v9h-6.556v-9zM1464.333 758.402v11h11v-11h-11zm10 10h-9v-9h9v9zM1237.36 818.308h1v-21.28h102.994v10.39h1v-11.39H1237.36zM915.412 797.03H959.5v7.517h1v-8.518h-45.088zM683.17 753.366H639.5v42.66h-31.92v-71.25h-53.41v49.92h-17.82v-14.29h-28.99v-27.63h-46v17.17h-41.19v10.46h-43.81v15.52h-34v-33.82h-42.99v32.59h-12.7v1h12.7v42.61h1v-21.28h92.13v-21.33h162.67v-49.92h51.41v71.25h32.92v10.394h1v-53.053h41.67v53.053h1v-10.394H800v-1H683.17v-42.66zm-262-2.42h41.19v-17.17h44v27.63h28.99v13.29h-96.99v-14.29h-17.19v-9.46zm-120.8-7.84h40.99v33.82h35v19.1h-75.99v-52.92zm91.13 31.59v21.33h-14.14v-34.62h60v13.29H391.5zM183.17 774.695H159.5v8.75h-26.13v-41.34H93.58v8.76h1v-7.76h37.79v40.34h-16.46v-30.08H72.25v30.08H0v1h72.25v4.42h1v-34.5h41.66v34.5h1v-4.42h44.59v-8.75h21.67v21.33h53.27v-1h-52.27zM983.17 774.695h-40.8v8.75h-9v-27h9v4.46h1v-5.46h-10v-13.34h-40.29v1h39.29v40.34h-16.46v-30.08h-43.66v30.08H757.83v-15.04h-39.66v15.54h1v-14.54h37.66v15.04h186.54v-8.75h38.8v21.33h11.166v-1H983.17v-21.33zm-109.92-20.33h41.66v29.08h-41.66v-29.08zM814.5 769.406h17.33v-35.63h25v35.79h1v-36.79h-27v35.63H813.5v6.29H800v1h14.5zM620.83 775.195h1v-33.09h-11.75v1h10.75zM701.17 743.105h39.66v21.8h1v-22.8h-41.66v32.59h-14.5v1h15.5zM364.833 781.585v9h7.667v-9h-7.667zm6.667 8h-5.667v-7h5.667v7zM462.36 760.402h-7.668v9h7.667v-9zm-1 8h-5.668v-7h5.667v7zM475.833 760.402h-7.667v9h7.667v-9zm-1 8h-5.667v-7h5.667v7zM78.377 767.774h7.667v-9h-7.667v9zm1-8h5.667v7h-5.667v-7zM475.833 742.108h-7.667v9h7.667v-9zm-1 8h-5.667v-7h5.667v7zM789.833 758.402h-8.556v11h8.556v-11zm-1 10h-6.556v-9h6.556v9zM305.944 759.735h8.556v-11h-8.556v11zm1-10h6.556v9h-6.556v-9zM644.833 769.402h11v-11h-11v11zm1-10h9v9h-9v-9zM141.87 797.03h17.63v10.39h1v-11.39h-18.63zM14.5 770.065h22.83v-1h-5.5v-35.29h25v35.79h1v-36.79h-27v36.29H13.5v5.63H0v1h14.5zM224.37 793.525h1v-33.12h-79.5v1h78.5z"/></g></g><g><path fill="#38133F" d="M526.85 529.906h12v-24h-12v-119c-63.677 0-128.87-17.248-141-61.496h-60v24h-24l-33.614 33.613v469.692H538.85v-58.81h-12v-12h12v-24h-12v-12h12v-24h-12v-12h12v-24h-12v-12h12v-24h-12v-12h12v-24h-12v-12h12v-24h-12v-12h12v-24h-12v-12z"/><g fill="#FFC06E"><path d="M523.853 601.893c-4.86-.02-9.74-.1-14.58-.25v12c4.84.15 9.72.23 14.58.25v-12zM507.793 601.593c-1.84-.05-3.67-.12-5.5-.2v12c1.83.08 3.66.15 5.5.2v-12zM495.323 613.053c1.33.08 2.67.15 4 .21v-12c-1.33-.06-2.67-.13-4-.21v12zM490.853 612.793v-12c-.84-.05-1.67-.11-2.5-.17v12c.83.06 1.66.12 2.5.17zM481.383 612.093l1 .09v-12l-1-.09v12zM431.216 517.48c1.464.357 2.95.705 4.462 1.042v-18c-1.51-.337-2.998-.685-4.462-1.043v18zM402.255 507.173c.33.175.66.35 1 .523v-18c-.34-.173-.67-.35-1-.523v18zM526.85 508.906c-15.632 0-31.353-.604-46.365-1.88v18c15.01 1.276 30.732 1.88 46.365 1.88h9v-18h-9zM411.908 511.538c.707.274 1.427.544 2.154.81v-18c-.728-.266-1.448-.535-2.154-.81v18zM421.563 514.848c1.084.33 2.188.65 3.308.966v-18c-1.118-.315-2.222-.636-3.307-.966v18zM469.832 523.992c2.99.328 6.018.627 9.077.897v-18c-3.06-.272-6.088-.57-9.078-.898v18zM440.87 519.618c1.843.368 3.716.722 5.615 1.062v-18c-1.9-.34-3.772-.693-5.615-1.062v18zM468.1 505.8c-2.673-.306-5.316-.633-7.922-.984v18c2.606.352 5.25.68 7.923.983v-18zM457.293 504.413c-2.287-.327-4.546-.673-6.77-1.04v18c2.224.367 4.482.713 6.77 1.04v-18zM430.275 535.247c-1.117-.28-2.22-.565-3.308-.857v18c1.088.292 2.19.578 3.308.857v-18zM441.082 537.66c-1.508-.3-2.995-.61-4.462-.932v18c1.467.32 2.954.63 4.462.932v-18zM407.66 545.777c.33.146.663.29 1 .435v-18c-.337-.144-.67-.29-1-.435v18zM419.467 532.195c-.727-.23-1.445-.468-2.154-.707v18c.71.24 1.427.476 2.154.707v-18zM485.89 543.456v18c13.36.983 27.194 1.45 40.96 1.45h9v-18h-9c-13.766 0-27.6-.467-40.96-1.45zM451.89 539.594c-1.896-.304-3.768-.62-5.615-.952v18c1.847.33 3.72.648 5.615.952v-18zM473.505 542.38c-2.67-.27-5.313-.562-7.923-.875v18c2.61.313 5.253.604 7.923.874v-18zM475.236 560.55c2.995.29 6.023.55 9.077.786v-18c-3.054-.235-6.082-.496-9.077-.786v18zM462.697 541.146c-2.284-.293-4.542-.603-6.77-.93v18c2.228.327 4.486.637 6.77.93v-18zM438.775 591.188c1.092.23 2.194.452 3.308.67v-18c-1.114-.218-2.215-.44-3.308-.67v18zM497.698 580.185v18c9.623.486 19.405.72 29.152.72h9v-18h-9c-9.747 0-19.53-.233-29.152-.72zM448.428 593.02c1.473.253 2.96.5 4.462.734v-18c-1.503-.235-2.99-.48-4.462-.734v18zM429.12 588.955c.713.182 1.43.36 2.155.54v-18c-.724-.18-1.442-.358-2.154-.54v18zM419.467 586.195c.33.106.666.21 1 .314v-18c-.334-.105-.67-.21-1-.315v18zM477.39 596.754c2.618.24 5.26.46 7.923.658v-18c-2.66-.2-5.304-.417-7.923-.658v18zM458.083 594.527c1.853.262 3.726.51 5.615.747v-18c-1.89-.237-3.762-.485-5.615-.747v18zM487.044 597.538c3.005.214 6.032.4 9.077.564v-18c-3.044-.163-6.072-.35-9.076-.564v18zM467.736 595.757c2.236.257 4.492.5 6.77.724v-18c-2.278-.224-4.533-.466-6.77-.723v18zM456.226 630.26c1.095.16 2.198.315 3.308.467v-18c-1.11-.15-2.212-.308-3.308-.468v18zM446.572 628.694c.714.128 1.432.253 2.154.376v-18c-.722-.123-1.44-.248-2.154-.376v18zM436.918 626.793c.333.072.664.146 1 .218v-18c-.336-.07-.667-.145-1-.217v18zM515.15 616.793v18c3.897.075 7.8.113 11.7.113h9v-18h-9c-3.9 0-7.803-.038-11.7-.113zM504.495 634.485c3.017.114 6.044.205 9.077.272v-18c-3.033-.067-6.06-.158-9.077-.272v18zM485.187 633.402c2.244.17 4.5.323 6.77.462v-18c-2.27-.14-4.526-.293-6.77-.462v18zM494.84 634.034c2.63.146 5.272.274 7.924.383v-18c-2.652-.108-5.294-.236-7.923-.383v18zM465.88 631.54c1.476.178 2.965.346 4.46.508v-18c-1.495-.162-2.984-.33-4.46-.507v18zM475.534 632.578c1.86.18 3.732.347 5.615.504v-18c-1.884-.157-3.756-.325-5.616-.504v18zM472.358 527.262c-1.34-.14-2.674-.283-4-.433v12c1.326.148 2.66.293 4 .432v-12zM476.746 539.693c1.822.17 3.656.33 5.5.48v-12c-1.844-.15-3.678-.31-5.5-.48v12zM493.523 528.953v12c9.98.58 20.17.89 30.33.94v-12c-10.16-.05-20.35-.36-30.33-.94zM492.134 528.875c-2.346-.143-4.68-.302-7-.477v12c2.32.175 4.654.334 7 .477v-12zM452.582 536.705v-12l-1-.16v12l1 .16zM459.97 537.787c.83.112 1.663.222 2.5.33v-12c-.837-.108-1.67-.218-2.5-.33v12zM464.393 574.353l1 .12v-12l-1-.12v12zM481.133 576.073c1.32.12 2.66.22 4 .32v-12c-1.34-.1-2.68-.2-4-.32v12zM472.763 575.293c.83.09 1.66.17 2.5.25v-12c-.84-.08-1.67-.16-2.5-.25v12zM489.503 564.703v12c1.82.12 3.66.23 5.5.34v-12c-1.84-.11-3.68-.22-5.5-.34zM497.873 565.184v12c2.33.12 4.66.23 7 .31v-12c-2.34-.08-4.67-.19-7-.31zM506.243 565.543v12c5.845.205 11.733.305 17.61.334v-12c-5.877-.03-11.765-.13-17.61-.334zM301.854 582.906h24v11.143h-24zM301.854 618.906h24v8.857h-24zM301.854 654.75h24v6.57h-24zM301.854 690.906h24v4.286h-24zM301.854 726.906h24v2h-24zM271.134 510.906h3v15.714h-3zM271.134 546.906h3v13.43h-3zM271.134 582.906h3v11.143h-3zM271.134 618.906h3v8.857h-3zM271.134 654.75h3v6.57h-3zM271.134 690.906h3v4.286h-3zM271.134 726.906h3v2h-3zM361.85 474.906h24v18h-24zM361.85 510.906h24v15.714h-24zM361.85 546.906h24v13.43h-24zM361.85 582.906h24v11.143h-24zM361.85 618.906h24v8.857h-24zM361.85 654.75h24v6.57h-24zM361.85 690.906h24v4.286h-24zM361.85 726.906h24v2h-24zM325.85 474.906h-23.996v18h21.996v15h2v-15h.004v-18h-.004zM325.85 510.906h-23.996v15.715h21.996v18h2v-18h.004v-15.714h-.004zM325.85 546.906h-23.996v13.43h21.996v4.57h2v-4.57h.004v-13.43h-.004zM323.85 567.906h2v6h-2zM323.85 576.906h2v3h-2zM328.85 328.41h54v72.267h-54zM328.85 401.33h54v7.386h-54zM328.85 410.445h54v6.31h-54zM328.85 419.56h54v5.23h-54zM328.85 428.676h54v4.154h-54zM328.85 437.792h54v3.076h-54zM328.85 446.906h54v2h-54zM400.25 423.906h18v48h-18zM428.814 372.323l-1-.46v52.897c.32.168.656.34 1 .517v-52.954zM428.814 490.06c-.337-.104-.67-.208-1-.312v5.866c.33.09.66.17 1 .26v-5.814zM502.854 444.883c-8.65-.12-16.66-.74-24-1.71v46.1c7.32.91 15.33 1.5 24 1.61v-46zM476.854 442.903c-6.55-.93-12.55-2.13-18-3.47v46.31c5.41 1.26 11.42 2.39 18 3.27v-46.11zM456.854 438.923c-4.38-1.13-8.38-2.36-12-3.6v46.54c3.57 1.16 7.58 2.32 12 3.4v-46.34zM442.854 434.623c-2.15-.78-4.15-1.55-6-2.32v46.7c1.83.71 3.83 1.45 6 2.19v-46.57zM434.854 431.463c-.69-.3-1.36-.59-2-.88v46.78c.64.28 1.3.56 2 .84v-46.74zM301.854 355.41h21.996v117h2v-119h-23.996l-30.62 30.61v56.822l30.62-30.62zM301.854 442.88l-30.62 30.62v2.828l30.62-30.62zM301.854 412.622l-30.62 30.62v9.43l30.62-30.62zM301.854 427.75l-30.62 30.62v6.13l30.62-30.62zM440.034 376.863c-.84-.3-1.67-.6-2.5-.92v53.352c.805.334 1.637.67 2.5 1.01v-53.442zM440.034 498.443v-5.332c-.85-.2-1.678-.407-2.5-.614v5.427c.82.19 1.66.35 2.5.52zM451.264 495.45c-1.36-.248-2.695-.5-4-.763v5.126c1.32.23 2.65.46 4 .68v-5.044zM451.264 380.453c-1.35-.38-2.68-.77-4-1.18v53.645c1.29.43 2.617.857 4 1.278v-53.743zM462.484 383.303c-1.85-.41-3.69-.85-5.5-1.31v53.822c1.772.47 3.6.924 5.5 1.36v-53.872zM462.484 497.214c-1.874-.25-3.715-.513-5.5-.792v4.942c1.81.26 3.65.51 5.5.75v-4.9zM473.704 385.543c-2.35-.41-4.69-.85-7-1.33v53.87c2.257.46 4.582.894 7 1.288v-53.827zM473.704 498.477c-2.39-.223-4.736-.46-7-.728v4.883c2.31.27 4.64.53 7 .77v-4.926zM484.924 387.253c-2.86-.37-5.69-.79-8.5-1.25v53.783c2.736.404 5.57.76 8.5 1.06v-53.593zM484.924 499.315c-2.908-.167-5.754-.358-8.5-.59v4.928c2.8.27 5.64.51 8.5.73v-5.068zM505.85 499.906c-6.952 0-13.498-.19-19.696-.52v5.086c12.3.9 25.01 1.36 37.7 1.43v-116.01c-12.68-.11-25.39-.91-37.7-2.48v53.563c6.152.59 12.718.93 19.696.93v58z"/></g></g><g><path fill="#38133F" d="M1443 671.24v152.33h-391.33v-50.16c0-4.51-3.66-8.17-8.17-8.17s-8.17 3.66-8.17 8.17v50.16H1021l7.06-75.4c-45.77-7.11-48.39-27.6-48.39-27.6h161.66v-40.33s13.79-2.51 44.67-4.88v-76.29c121.5 0 171-18.5 171-18.5h24v15.75l32.67 8.92v66H1443z"/><g fill="#FFC06E"><path d="M1316 784.07h2v-35.5h71v45.5h2v-47.5h-75zM1268.27 598.867c-1.467.124-2.955.245-4.462.363v72.522c1.48-.032 2.968-.063 4.462-.093v-72.793zM1297.23 595.82l-1 .13v75.344l1-.005v-75.47zM1219 601.596c-9.46.277-19.448.442-30 .47v73.06c9.54-.698 19.558-1.3 30-1.812v-71.718zM1287.577 596.978c-.71.08-1.43.16-2.154.237v74.177c.717-.01 1.434-.017 2.154-.024v-74.39zM1277.923 597.99c-1.09.105-2.193.21-3.308.314v73.24c1.104-.018 2.197-.038 3.308-.055v-73.5zM1229.654 601.23c-2.97.118-5.992.226-9.077.32v71.687c2.992-.144 6.014-.28 9.077-.408v-71.6zM1258.615 599.623c-1.842.133-3.717.26-5.615.386v72.01c1.858-.05 3.735-.098 5.615-.144v-72.253zM1239.308 600.797c-2.594.13-5.234.25-7.923.362v71.595c2.615-.106 5.258-.206 7.923-.3v-71.658zM1248.962 600.263c-2.218.134-4.476.263-6.77.384v71.71c2.24-.077 4.495-.15 6.77-.218v-71.877zM1168.667 697.904c21.583-12.084 60.024-20.662 140.667-20.662v-3.004c-103.004.13-153.705 6.836-165 8.554v37.777h24.333v-22.666zM1115.6 802.07v21.5h2v-27.5h-8zM1128.8 802.07v21.5h2v-27.5h-8zM1142 802.07v21.5h2v-27.5h-8zM1155.2 802.07v21.5h2v-27.5h-8zM1168.4 802.07v21.5h2v-27.5h-8zM983.174 724.062c4.174 7.368 20.308 24.507 79.826 24.507v-1h2v3h-2c-11.68 0-22.387-.66-31.823-1.96l-1.035-.144-2.565 27.353 1.99.187 2.372-25.277c9.27 1.22 19.713 1.84 31.06 1.84h2v71h2v-75h146v54.333h2V746.57h-16.062c-6.01-6.977-10.898-14.346-14.59-22h249.08c-.198.622-.442 1.295-.73 2H1390v2h27.165c-2.342 7.224-9.632 18-24.165 18v2c.798 0 1.583-.013 2.354-.04 30.76-.812 38.477-17.45 40.37-24.708l.327-1.252H982.33l.846 1.492zm199.34 22.507h-3.13c-6.097-6.942-11.08-14.322-14.86-22h3.76c3.623 7.652 8.393 15.03 14.23 22zm-11.3-22h4.12c3.62 7.642 8.384 15.02 14.207 22h-3.558c-6.056-6.953-11.008-14.334-14.768-22zm4.268 22h-2.694c-6.14-6.93-11.153-14.31-14.954-22h3.4c3.623 7.66 8.4 15.037 14.248 22zm-7.037 0h-2.246c-6.186-6.918-11.236-14.3-15.058-22h3.04c3.627 7.668 8.405 15.046 14.263 22zm-7.022 0h-1.55c-6.19-6.908-11.28-14.298-15.158-22h2.414c3.63 7.678 8.422 15.054 14.293 22zm-15.555-11.73c2.56 4.046 5.485 7.953 8.687 11.73h-1.295c-6.23-6.895-11.346-14.286-15.24-22h2.212c1.646 3.48 3.51 6.91 5.636 10.27zm1.74 11.73h-.942c-6.273-6.884-11.422-14.276-15.338-22h1.952c3.663 7.68 8.47 15.066 14.33 22zm-7.033 0h-.506c-6.317-6.873-11.5-14.265-15.437-22h1.586c3.665 7.69 8.485 15.074 14.355 22zm-7.05 0h-.056c-6.358-6.86-11.567-14.254-15.525-22h1.226c3.665 7.696 8.48 15.08 14.355 22zm-14.593-9.97c-2.814-3.89-5.277-7.915-7.408-12.03h.593c1.953 4.106 4.218 8.128 6.815 12.03zm-9.73-4.505c-1.59-2.465-3.04-4.978-4.364-7.526h.366c1.21 2.535 2.534 5.048 4 7.525zm-9.234-4.166c-.64-1.11-1.24-2.234-1.825-3.36h.147c.537 1.125 1.09 2.248 1.678 3.36zm96.346 18.64h-3.735c-6.014-6.965-10.936-14.345-14.676-22h4.232c3.587 7.644 8.334 15.01 14.178 22zM1314.333 676.238h28.266v-2h-30.267v46.33h2zM1360 621.05h18v4.153h-18zM1360 627.203h18v3.076h-18zM1360 632.28h18v2h-18zM1360 583.57h18v35.478h-18zM1440 673.236h-26.33v2H1439v32h2v-34zM1439 710.236h2v33.715h-2zM1439 746.236h2v18h-2zM1409.667 677.236h2v6h-2zM1409.667 686.236h2v3h-2zM1425.25 685.07h9.25v9.25h-9.25zM1409.67 675.24h2v-68.48l-30.67-8.37v2.08l28.67 7.82zM1028.812 784.207l-1.99-.188.592-6.305 1.99.188zM1028.296 789.724l-1.992-.187.35-3.713 1.99.188zM1027.92 794.16l-1.992-.185.25-2.692 1.992.186zM1053.67 794.793h2v6.305h-2zM1053.67 802.902h2v3.713h-2zM1053.67 808.437h2v2.69h-2zM1043.5 761.24v2c5.608 0 10.17 4.557 10.17 10.16v19.352h2V773.4c0-6.706-5.46-12.16-12.17-12.16zM1036.32 763.587l1.18 1.613c1.235-.903 2.678-1.525 4.174-1.798l-.358-1.967c-1.792.325-3.52 1.07-4.997 2.152zM1275 746.57h-8v16.187h2V748.57h4v59.867h2V754.57h33v-2h-33zM1226.393 775.913h2V754.57H1260v31.3h2v-33.3h-35.607zM1274.943 727.903l-1.886-.668c-.068.193-7.17 19.334-35.057 19.334h-16.804v29.343h2V748.57H1238c29.285 0 36.87-20.46 36.943-20.667zM1341.6 707.236h2v13.333h-2zM1377 650.57h2v70h-2z"/></g></g></g><g><path fill="#38133F" d="M1037.196 207.53c-1.886-1.786-3.997-3.21-6.51-3.967-1.297-.392-2.574-.337-3.858.136-7.054 2.598-14.238 4.757-21.582 6.375-7.052 1.553-14.174 2.582-21.397 2.83-6.497.224-12.938-.276-19.31-1.578-.87-.178-1.697-.06-2.525.18-.314.09-.623.2-1.1.353 1.628-2.363 3.118-4.13 2.09-6.97-.88-2.437-2.103-4.685-3.707-6.707-4.24-5.345-9.648-8.827-16.404-10.086-4.566-.85-9.07-.453-13.488.88-4.525 1.366-10.86 4.638-14.192 8.752-3.893 4.807-7.287 13.424-7.066 19.846-7.707 2.904-13.24 8.402-15.963 15.588-.143.376-.407.18-.29-.145.857-2.343 1.705-4.686 2.238-7.134 2.815-12.934-1.074-23.128-12.342-29.55-4.684-2.67-9.785-3.883-15.165-3.974-12.4-.21-22.136 4.893-29 10.34-3.372 2.674-3.43 6.558-3.452 9.184-.038 4.38.724 8.55 4.447 8.742 2.915.15 5.323-.877 7.064-3.284.34-.47.67-.953.934-1.467.34-.66.84-1.084 1.517-1.376 5.58-2.407 11.174-2.468 16.67.143 4.26 2.023 6.55 5.623 7.437 10.176 1.882 9.66-6.335 20.805-14.658 24.62-.453-3.752-1.176-14.23-.617-20.066.25-2.61.367-5.24-.083-7.854-.49-2.84-2.606-4.593-5.48-4.41-3.025.193-5.472 1.59-7.426 3.86-.35.41-.598.924-.815 1.424-1.22 2.818-1.974 5.77-2.457 8.796-.312 1.958-.636 3.915-.975 5.997l-2.386.58c-2.09-8.578-5.928-26.034-7.492-44.185-.427-4.96-.777-9.922-.912-14.898-.02-.7-.052-1.406-.145-2.1-.228-1.704-1.176-2.803-2.713-3.628-1.482-.795-3.848-1.582-5.41-.92-2.468 1.044-6.173 2.62-7.64 3.278-1.933.868-3.006 2.342-3.525 4.383-4.84 18.436-13.775 66.548-13.775 66.548l-2.79.427s-1.373-24.565-1.594-29.475c-.16-3.57-.437-7.133-1.383-10.604-.552-2.025-1.875-3.22-3.933-3.63-1.12-.223-2.2-.044-3.245.313-2.062.704-3.833 1.87-5.28 3.51-.766.865-1.262 1.856-1.506 2.99-.624 2.903-1.005 5.837-1.105 8.803-.177 5.277.27 24.623.355 30.58l-5.307.61c.738-25.09 1.653-49.275.605-56.696-.384-2.715-2.418-4.6-5.16-4.695-3.736-.13-6.84 1.31-9.33 4.077-1.182 1.315-1.542 2.94-1.672 4.65-.377 4.962-.774 9.923-1.164 14.884-.064.82-.133 1.64-.21 2.587-1.812-.883-3.633-.754-5.552-.215-.195-.276-.406-.564-.607-.86-1.94-2.863-4.377-5.172-7.526-6.657-5.165-2.436-10.244-2.1-15.21.587-3.298 1.784-6 4.295-8.42 7.12-5.497 6.408-8.29 13.135-10.038 19.105-1.453-6.065-4.87-15.387-11.332-18.96-3.013-1.667-7.214-1.667-11.21 1.984.18-.164-2.42-5.432-3.48-7.867-.82-1.882-2.332-2.837-4.275-3.215-4.632-.9-11.772 1.638-13.63 6.853-2 5.61-5.498 18.23-5.498 18.23-2.317-4.02-4.568-8.038-7.82-11.444 12.63-13.464 2.89-34.376-11.956-37.298-3.88-.763-7.757-.843-11.666-.453-12.842 1.28-46.54 10.25-59.112 16.38-1.645.803-3.076 1.9-4.185 3.352-1.853 2.425-2.184 5.33.143 8.002 1.785 2.05 16.643 19.936 18.496 22.13 1.84 2.178 4.372 2.337 6.664 1.42l-3.615 33.686c-2.163-.747-4.072-.89-6.653-.197-3.382.907-6.447 2.442-9.09 4.755-1.454 1.272-2.704 2.94-2.704 5.558 0 3.75 1.7 7.982 4.474 12.01 7.56 10.968 22.704 15.99 37.847 14.995 27.5-1.805 42.047-17.306 49.184-28.154 3.463 10.625 10.212 21.56 19.96 22.812 3.45.443 6.84.116 10.117-1.03 9.715-3.39 16.103-9.82 20.004-19.416 3.437 8.75 6.754 14.207 10.91 16.85 7.917 5.032 18.102 3.504 25.606-2.725 6.2-5.147 6.46-13.362 5.722-16.777-.615-2.846-3.53-4.178-6.255-3.63-1.225.248-2.27.848-3.246 1.618-1.685 1.33-3.636 2.026-5.77 2.026-4.447 0-8.315-5.083-8.315-18.845 0-6.595.767-16.585 5.378-24.19.294-.487.708-.36.7.11-.11 5.916 1.085 9.974 2.304 13.348.14.384-.002.64-.183.925-1.087 1.71-1.684 3.575-1.84 5.596-.332 4.337 1.182 12.858 8.097 16.054 2.044.944 4.204 1.49 6.422 1.77 1.664.208 3.344.284 5.016.42.147.013.293.03.51.054.13 15.97 2.086 25.53 2.81 28.652.714 3.082 3.254 4.828 6.388 4.204 3.918-.78 6.715-3.82 7.022-6.824.69-6.746 1.288-17.574 1.695-27.17 2.59-.286 5.13-.565 7.754-.853.752 6.438 2.364 16.607 3.656 23.48.462 2.458 2.634 4.985 6.585 4.81-.5 3.186-1.14 7.902-1.34 9.915-.51 5.093 1.495 5.62 4.583 5.458 2.197 0 5.26-1.07 6.464-1.645 1.665-.796 2.638-2.15 2.973-4.026 1.335-7.482 7.878-42.086 8.004-42.72 3.858-.772 7.705-1.544 11.623-2.33 5.697 21.58 12.427 40.58 23.956 48.744 13.062 9.25 29.22 6.31 38.003-2.102 1.684-1.614 3.122-3.426 4.06-5.602.578-1.345 1.257-2.647 1.862-3.98.82-1.806.567-3.664-.682-4.94-1.19-1.213-2.688-1.578-4.3-1.25-1.126.232-2.247.595-3.3 1.058-2.957 1.296-6.028 1.975-9.25 1.936-4.657-.057-12.82-3.752-16.335-11.445 8.353-3.177 9.403-9.957 7.818-14.57l.634-.34c3.262 4.357 6.827 8.45 10.71 12.27 5.146 5.06 10.85 9.38 17.14 12.93 1.466.827 2.973 1.04 4.59.683 2.89-.64 5.464-1.932 7.685-3.88.703-.616 1.266-1.392 1.955-2.163l.45.192c-1.676 2.177-2.767 4.643-3.998 7.02-1.108 2.14.015 4.61 2.29 5.548 2.143.884 12.3 4.143 22.014 4.143 31.793-1.15 45.417-23.56 45.637-46.86 6.64-3.692 10.937-12.43 10.62-24.238l1.084-.047c-2.63 22.504-6.44 54.722-5.822 66.368.192 3.616 3.013 5.084 5.704 4.748 8.8-1.098 14.81-8.593 15.656-12.784 3.902-19.345 4.823-46.167 5.58-60.416 6.808-1.353 17.822-4.612 27.453-8.595.84-.346 1.538-.84 2.136-1.522 1.752-1.997 3.51-3.988 5.293-5.96.758-.84 1.518-1.66 1.765-2.814v-1.65c-.453-1.748-1.534-3.085-2.81-4.293zM678.22 245.96c.49-6.146 2.41-15.805 3.383-20.393 3.06 1.98 5.776 7.28 6.7 14.817.975 7.946 1.875 21.397-3.302 32.35-.545 1.156-2.248 4.707-3.512 4.632-1.27-.077-5.248-6.45-3.267-31.405zm260.663 12.802c-2.174-.127-4.16.537-6.064 1.486-2.016 1.005-3.655 2.41-4.697 4.463-.51 1.006-1.132 1.956-1.71 2.927-.902 1.522-2.272 2.438-3.922 2.966-3.075.986-7.26-2.67-8.51-4.43 12.625-9.886 16.683-20.677 17.486-28.298 5.357 3.04 11.04 9.314 13.973 15.932 4.896 11.054 3.097 25.94.155 29.206-5.13 5.697-12.21 5.327-18.858 3.605 6.65-3.753 14.888-10.62 17.064-21.535.66-3.308-1.536-6.123-4.917-6.32zm12.954-39.105l-.92 1.627c-1.705-1.258-6.265-3.608-9.303-5.048-2.425-1.15-10.856-5.163-13.213-9.295 1.315-.428 2.532-.23 3.724-.013 4.643.85 8.76 2.794 12.237 6.022 1.308 1.213 2.437 2.58 3.264 4.164.83 1.587 2.36 2.426 4.213 2.543zm-44.258 32.146c-.55-4.348-.49-11.278.02-14.3.126-.753.315-.864 1.038-.653 2.018.586 3.132 3.08 3.37 5.544.436 4.513-1.517 7.472-4.43 9.41zm-296.55-45.23c7.68-2.646 16.592-3.155 18.777-1.85-2.33 3.916-11.734 10.505-19.216 13.49.15-3.928.293-7.755.44-11.64zm27.392 42.28c.626 9.136-2.078 17.122-8.554 23.702-5.347 5.433-14.788 9.22-21.652 9.22l1.494-40.163c7.83-2.77 15.356-6.084 22.542-10.417 3.01 3.226 5.688 10.626 6.17 17.66z"/><g fill="#fff"><path d="M693.848 150.646v9.58h-4.605V135.53h8.824c1.277 0 2.396.184 3.357.553s1.767.885 2.417 1.547 1.14 1.447 1.47 2.355.49 1.896.49 2.962c0 1.16-.184 2.215-.553 3.164s-.894 1.76-1.573 2.427-1.494 1.187-2.443 1.556-2.003.554-3.163.554h-4.22zm0-11.004v6.943h3.744c1.125 0 1.983-.322 2.575-.967s.888-1.535.888-2.672c0-1.02-.302-1.825-.905-2.417s-1.456-.89-2.558-.89h-3.744zM713.026 160.226h-4.307v-26.033h4.306v26.033zM724.012 140.855c2.52 0 4.41.8 5.67 2.4s1.89 4.098 1.89 7.496-.63 5.9-1.89 7.507-3.15 2.408-5.67 2.408-4.41-.803-5.67-2.408-1.89-4.107-1.89-7.506.63-5.896 1.89-7.496 3.15-2.4 5.67-2.4zm0 3.64c-1.113 0-1.9.477-2.364 1.432s-.694 2.335-.694 4.14v1.37c0 1.817.23 3.203.694 4.158s1.25 1.433 2.364 1.433 1.9-.478 2.364-1.433.694-2.34.694-4.157v-1.37c0-1.806-.23-3.186-.694-4.14s-1.25-1.434-2.364-1.434zM744.034 140.855c.727 0 1.397.108 2.013.325s1.146.565 1.59 1.046.795 1.107 1.047 1.88.378 1.718.378 2.83v13.29h-4.307v-12.094c0-1.22-.223-2.083-.668-2.593s-1.055-.766-1.828-.766c-.423 0-.815.097-1.18.29s-.676.463-.94.81-.468.746-.614 1.203-.22.95-.22 1.477v11.672H735v-18.932h3.585l.44 2.338h.21c.246-.363.527-.715.844-1.055s.673-.636 1.07-.888.84-.455 1.32-.607 1-.228 1.564-.228zM759.432 140.855c2.285 0 3.996.8 5.133 2.4s1.705 4.098 1.705 7.496v1.09h-9.615c.012.845.073 1.595.185 2.25s.28 1.21.51 1.662.524.794.888 1.028.81.352 1.336.352c.738 0 1.327-.316 1.767-.95s.66-1.517.66-2.653h4.27c0 1.218-.166 2.275-.5 3.172s-.8 1.638-1.397 2.224-1.307 1.022-2.127 1.31-1.71.43-2.672.43c-2.426 0-4.27-.802-5.528-2.407s-1.89-4.108-1.89-7.507.627-5.897 1.88-7.497 3.052-2.4 5.396-2.4zm0 3.533c-.914 0-1.58.375-1.995 1.125s-.66 1.816-.73 3.2h5.028c0-1.384-.185-2.45-.554-3.2s-.95-1.125-1.748-1.125zM786.73 135.09c1.29 0 2.488.187 3.596.562s2.065.952 2.874 1.73 1.444 1.776 1.907 2.99.694 2.656.694 4.332h-4.71c0-.95-.105-1.778-.316-2.487s-.51-1.298-.896-1.767-.847-.817-1.38-1.046-1.122-.343-1.767-.343c-.854 0-1.602.183-2.24.546s-1.17.885-1.59 1.564-.736 1.51-.94 2.487-.31 2.083-.31 3.313v1.81c0 1.23.106 2.336.317 3.314s.533 1.808.967 2.487.98 1.202 1.635 1.565 1.423.545 2.302.545c.668 0 1.274-.114 1.82-.343s1.01-.574 1.396-1.037.686-1.046.896-1.75.316-1.528.316-2.478h4.5c0 1.617-.23 3.026-.686 4.228s-1.09 2.197-1.898 2.988-1.767 1.383-2.874 1.775-2.312.59-3.612.59c-1.547 0-2.93-.26-4.148-.774s-2.25-1.302-3.094-2.356-1.485-2.382-1.925-3.98-.66-3.49-.66-5.67.22-4.072.66-5.678 1.08-2.936 1.925-3.99 1.875-1.84 3.094-2.355 2.602-.77 4.15-.77zM806.014 140.855c2.52 0 4.41.8 5.67 2.4s1.89 4.098 1.89 7.496-.63 5.9-1.89 7.507-3.15 2.408-5.67 2.408-4.408-.803-5.668-2.408c-1.26-1.605-1.89-4.107-1.89-7.506s.63-5.896 1.89-7.496c1.26-1.6 3.148-2.4 5.668-2.4zm0 3.64c-1.113 0-1.9.477-2.363 1.432s-.694 2.335-.694 4.14v1.37c0 1.817.232 3.203.695 4.158s1.25 1.433 2.364 1.433 1.902-.478 2.365-1.433.692-2.34.692-4.157v-1.37c0-1.806-.23-3.186-.693-4.14s-1.253-1.434-2.366-1.434zM826.035 140.855c.727 0 1.398.108 2.014.325s1.144.565 1.59 1.046.794 1.107 1.046 1.88.377 1.718.377 2.83v13.29h-4.307v-12.094c0-1.22-.223-2.083-.668-2.593s-1.055-.766-1.828-.766c-.422 0-.814.097-1.178.29s-.676.463-.94.81-.468.746-.614 1.203-.22.95-.22 1.477v11.672H817v-18.932h3.586l.44 2.338h.21c.246-.363.527-.715.844-1.055s.674-.636 1.072-.888.838-.455 1.318-.607 1.003-.228 1.565-.228zM839.746 133.912c.246 0 .516.012.81.035s.58.056.86.097.55.088.81.14.474.104.65.15v3.217h-1.76c-1.007 0-1.51.517-1.51 1.548v2.197h3.27v3.64h-3.27v15.292h-4.325v-15.293h-1.915v-3.64h1.916v-2.302c0-.633.07-1.254.212-1.863s.38-1.152.72-1.627.798-.858 1.372-1.15 1.295-.44 2.162-.44zM851.26 140.855c2.285 0 3.996.8 5.133 2.4s1.705 4.098 1.705 7.496v1.09h-9.615c.012.845.074 1.595.186 2.25s.28 1.21.51 1.662.522.794.886 1.028.81.352 1.336.352c.738 0 1.328-.316 1.768-.95s.658-1.517.658-2.653h4.27c0 1.218-.165 2.275-.5 3.172s-.8 1.638-1.397 2.224-1.306 1.022-2.126 1.31-1.71.43-2.672.43c-2.426 0-4.268-.802-5.527-2.407s-1.89-4.108-1.89-7.507.626-5.897 1.88-7.497 3.05-2.4 5.395-2.4zm0 3.533c-.914 0-1.578.375-1.994 1.125s-.66 1.816-.73 3.2h5.027c0-1.384-.184-2.45-.553-3.2s-.953-1.125-1.75-1.125zM868.873 140.855c.27 0 .516.018.738.053s.417.07.58.105c.19.047.347.094.476.14v4.167h-1.547c-.47 0-.917.07-1.345.21s-.803.38-1.125.713-.58.78-.773 1.336-.29 1.256-.29 2.1v10.547h-4.308v-18.932h3.585l.51 2.76h.21c.13-.398.282-.788.458-1.17s.396-.72.66-1.02.57-.54.922-.728.768-.282 1.248-.282zM879.156 140.855c2.285 0 3.996.8 5.133 2.4s1.704 4.098 1.704 7.496v1.09h-9.615c.01.845.073 1.595.185 2.25s.28 1.21.51 1.662.523.794.887 1.028.81.352 1.336.352c.738 0 1.328-.316 1.768-.95s.658-1.517.658-2.653h4.27c0 1.218-.165 2.275-.5 3.172s-.8 1.638-1.397 2.224-1.307 1.022-2.127 1.31-1.71.43-2.672.43c-2.426 0-4.268-.802-5.527-2.407s-1.89-4.108-1.89-7.507.627-5.897 1.88-7.497 3.053-2.4 5.396-2.4zm0 3.533c-.914 0-1.578.375-1.994 1.125s-.66 1.816-.73 3.2h5.027c0-1.384-.185-2.45-.554-3.2s-.953-1.125-1.75-1.125zM898.21 140.855c.728 0 1.4.108 2.015.325s1.145.565 1.59 1.046.795 1.107 1.047 1.88.377 1.718.377 2.83v13.29h-4.308v-12.094c0-1.22-.223-2.083-.668-2.593s-1.055-.766-1.828-.766c-.422 0-.814.097-1.178.29s-.676.463-.94.81-.468.746-.614 1.203-.22.95-.22 1.477v11.672h-4.308v-18.932h3.586l.44 2.338h.21c.246-.363.527-.715.844-1.055s.674-.636 1.072-.888.838-.455 1.318-.607 1.002-.228 1.565-.228zM913.715 140.855c1.008 0 1.922.146 2.742.44s1.518.746 2.092 1.36 1.017 1.398 1.327 2.348.465 2.086.465 3.41h-4.43c0-1.336-.182-2.323-.545-2.962s-.914-.957-1.652-.957c-.914 0-1.56.475-1.94 1.424s-.573 2.332-.573 4.148v1.37c0 1.817.203 3.203.607 4.158s1.09 1.433 2.063 1.433c.773 0 1.33-.328 1.67-.984s.51-1.64.51-2.953h4.29c0 1.323-.153 2.463-.458 3.418s-.738 1.74-1.3 2.355-1.243 1.07-2.04 1.362-1.688.44-2.672.44c-1.23 0-2.297-.197-3.2-.59s-1.647-.996-2.24-1.81-1.028-1.847-1.31-3.095-.422-2.722-.422-4.42c0-3.4.585-5.898 1.75-7.498s2.92-2.397 5.265-2.397zM930.027 140.855c2.285 0 3.996.8 5.133 2.4s1.705 4.098 1.705 7.496v1.09h-9.615c.012.845.074 1.595.186 2.25s.28 1.21.51 1.662.523.794.887 1.028.81.352 1.336.352c.737 0 1.327-.316 1.767-.95s.658-1.517.658-2.653h4.27c0 1.218-.165 2.275-.5 3.172s-.8 1.638-1.397 2.224-1.307 1.022-2.127 1.31-1.71.43-2.67.43c-2.427 0-4.27-.802-5.528-2.407s-1.89-4.108-1.89-7.507.626-5.897 1.88-7.497 3.052-2.4 5.395-2.4zm0 3.533c-.914 0-1.578.375-1.994 1.125s-.66 1.816-.73 3.2h5.027c0-1.384-.184-2.45-.553-3.2s-.953-1.125-1.75-1.125z"/></g><circle fill="#fff" cx="650.852" cy="137.382" r="4.959"/><path fill="#fff" d="M665.894 147.29c0 2.74-2.218 4.958-4.96 4.958-2.735 0-4.958-2.22-4.958-4.96 0-2.74 2.225-4.958 4.958-4.958 2.743 0 4.96 2.22 4.96 4.96z"/><circle fill="#fff" cx="650.835" cy="157.226" r="4.96"/><path fill="#fff" d="M653.81 124.357c-12.657 0-22.917 10.26-22.918 22.918 0 12.657 10.26 22.916 22.918 22.918 12.658-.002 22.916-10.26 22.92-22.918-.004-12.658-10.262-22.917-22.92-22.918zm12.9 35.816c-3.31 3.305-7.856 5.342-12.9 5.344-5.046 0-9.59-2.04-12.9-5.344-3.304-3.31-5.34-7.855-5.342-12.9 0-5.043 2.038-9.59 5.344-12.9 3.31-3.304 7.855-5.34 12.9-5.343 5.044 0 9.59 2.04 12.9 5.344 3.304 3.31 5.34 7.855 5.343 12.9-.004 5.044-2.04 9.59-5.346 12.9z"/><g fill="#fff"><path d="M677.393 355.785h5.08v3.64h-14.94v-3.64h5.536v-15.398h-5.573v-2.883c.504-.06 1.084-.167 1.74-.325s1.336-.36 2.04-.607 1.4-.524 2.09-.835 1.325-.647 1.9-1.01h2.126v21.057zM691.104 334.287c.914 0 1.775.123 2.584.37s1.512.626 2.11 1.142 1.068 1.177 1.414 1.985.52 1.78.52 2.918c0 1.09-.18 2.14-.537 3.146s-.814 1.974-1.37 2.9-1.173 1.8-1.847 2.627-1.33 1.603-1.97 2.33-1.22 1.4-1.748 2.02-.914 1.178-1.16 1.67h8.736v4.025h-14.133v-.86c0-.962.135-1.864.404-2.708s.627-1.644 1.072-2.4.95-1.478 1.52-2.17 1.15-1.368 1.75-2.03 1.18-1.324 1.748-1.986 1.075-1.342 1.52-2.04.804-1.42 1.073-2.17.405-1.547.405-2.39c0-.294-.035-.596-.105-.906s-.19-.598-.36-.86-.4-.48-.694-.65-.662-.256-1.107-.256-.827.103-1.144.308-.574.478-.773.817-.343.736-.43 1.188-.133.93-.133 1.433v1.478h-4.43c-.023-.117-.04-.246-.053-.387-.035-.245-.053-.597-.053-1.054 0-1.324.193-2.458.58-3.4s.91-1.72 1.573-2.33 1.427-1.055 2.294-1.336 1.783-.423 2.744-.423zM708.172 351.83h-8.666v-4.254h8.666v4.254zM720.055 355.785h5.08v3.64h-14.94v-3.64h5.536v-15.398h-5.57v-2.883c.503-.06 1.083-.167 1.74-.325s1.335-.36 2.038-.607 1.4-.524 2.092-.835 1.324-.647 1.898-1.01h2.127v21.057zM733.38 334.287c1.1 0 2.064.182 2.89.545s1.516.858 2.066 1.485.967 1.356 1.248 2.188.422 1.723.422 2.672c0 1.172-.223 2.244-.668 3.217s-1.125 1.758-2.04 2.355c1.138.562 1.955 1.35 2.453 2.363s.748 2.194.748 3.542c0 .984-.135 1.916-.404 2.795s-.69 1.644-1.266 2.294-1.31 1.166-2.206 1.547-1.978.572-3.243.572-2.348-.19-3.244-.57-1.635-.897-2.215-1.548-1.004-1.415-1.273-2.294-.404-1.81-.404-2.795c0-1.336.252-2.514.756-3.533s1.312-1.81 2.425-2.373c-.914-.6-1.588-1.384-2.02-2.356s-.65-2.045-.65-3.217c0-.95.137-1.84.412-2.672s.69-1.562 1.248-2.188 1.248-1.122 2.074-1.485 1.787-.545 2.89-.545zm0 14.308c-.868 0-1.53.328-1.987.984s-.686 1.61-.686 2.864c0 1.242.23 2.188.686 2.84s1.12.975 1.986.975 1.525-.326 1.977-.977.677-1.597.677-2.84c0-1.253-.226-2.208-.677-2.864s-1.11-.985-1.978-.985zm0-10.705c-.728 0-1.28.302-1.662.905s-.57 1.49-.57 2.663.19 2.06.57 2.663.935.906 1.66.906 1.287-.302 1.68-.905.59-1.49.59-2.662-.197-2.06-.59-2.663-.953-.905-1.68-.905zM761.275 334.287c1.594 0 3.026.258 4.298.773s2.35 1.3 3.234 2.355 1.562 2.385 2.03 3.99.703 3.498.703 5.678-.234 4.07-.703 5.67-1.146 2.926-2.03 3.98-1.963 1.84-3.234 2.355-2.704.773-4.298.773-3.023-.257-4.29-.772-2.34-1.3-3.225-2.355-1.562-2.382-2.03-3.98-.703-3.49-.703-5.67.234-4.072.703-5.678 1.146-2.936 2.03-3.99 1.96-1.84 3.226-2.355 2.696-.773 4.29-.773zm0 3.972c-.914 0-1.717.18-2.408.544s-1.266.885-1.723 1.564-.8 1.51-1.028 2.487-.343 2.083-.343 3.313v1.81c0 1.23.114 2.336.343 3.314s.57 1.808 1.028 2.487 1.03 1.2 1.723 1.563 1.494.545 2.408.545 1.717-.182 2.408-.545 1.27-.885 1.73-1.564.81-1.51 1.038-2.488.344-2.083.344-3.313v-1.812c0-1.23-.114-2.335-.343-3.313s-.573-1.808-1.036-2.487-1.04-1.2-1.73-1.564-1.495-.545-2.41-.545zM781.262 340.052c1.008 0 1.922.146 2.742.44s1.518.746 2.092 1.36 1.017 1.398 1.327 2.348.466 2.086.466 3.41h-4.43c0-1.336-.183-2.323-.546-2.962s-.914-.958-1.652-.958c-.914 0-1.562.475-1.942 1.424s-.57 2.332-.57 4.148v1.37c0 1.817.2 3.203.605 4.158s1.093 1.433 2.065 1.433c.773 0 1.33-.328 1.67-.984s.51-1.642.51-2.954h4.29c0 1.324-.153 2.464-.458 3.42s-.738 1.74-1.3 2.354-1.243 1.07-2.04 1.362-1.688.44-2.672.44c-1.23 0-2.297-.197-3.2-.59s-1.648-.996-2.24-1.81-1.028-1.847-1.31-3.095-.422-2.722-.422-4.42c0-3.4.583-5.898 1.75-7.498s2.92-2.398 5.264-2.398zM795.746 340.492h2.725v3.64h-2.724v10.546c0 1.03.504 1.547 1.512 1.547h1.213v3.2c-.15.058-.333.11-.544.157s-.434.094-.668.14-.47.083-.703.106-.457.035-.668.035c-.867 0-1.588-.146-2.162-.44s-1.03-.68-1.37-1.16-.58-1.02-.722-1.625-.21-1.222-.21-1.854V344.13h-1.917v-3.64h1.916l.65-5.325h3.674v5.327zM808.05 340.052c2.52 0 4.41.8 5.67 2.4s1.89 4.098 1.89 7.496-.63 5.9-1.89 7.506-3.15 2.408-5.67 2.408-4.408-.803-5.668-2.408-1.89-4.107-1.89-7.506.63-5.897 1.89-7.497 3.15-2.398 5.67-2.398zm0 3.64c-1.112 0-1.9.477-2.363 1.432s-.694 2.335-.694 4.14v1.37c0 1.817.23 3.203.694 4.158s1.25 1.433 2.364 1.433 1.902-.478 2.365-1.433.694-2.34.694-4.157v-1.37c0-1.806-.232-3.186-.695-4.14s-1.25-1.434-2.364-1.434zM823.063 357.085l-.44 2.338h-3.585V333.39h4.307v9.035h.193c.34-.762.888-1.348 1.644-1.758s1.608-.615 2.558-.615c.844 0 1.623.19 2.338.57s1.333.974 1.854 1.776.932 1.825 1.23 3.067.448 2.725.448 4.447-.14 3.208-.422 4.456-.686 2.28-1.213 3.094-1.166 1.418-1.916 1.81-1.595.59-2.532.59c-.902 0-1.723-.234-2.46-.703s-1.35-1.16-1.83-2.075h-.175zm.28-6.45c0 1.71.22 3.02.66 3.928s1.18 1.362 2.224 1.362 1.784-.454 2.224-1.362.66-2.218.66-3.93v-1.37c0-1.7-.22-3.006-.66-3.92s-1.18-1.37-2.223-1.37c-.527 0-.973.12-1.336.36s-.658.588-.887 1.045-.396 1.02-.5 1.688-.16 1.43-.16 2.285v1.284zM843.47 340.052c2.286 0 3.997.8 5.134 2.4s1.705 4.098 1.705 7.496v1.09h-9.616c.012.844.073 1.594.185 2.25s.28 1.21.51 1.66.523.795.887 1.03.81.35 1.336.35c.738 0 1.327-.315 1.767-.948s.66-1.518.66-2.654h4.27c0 1.22-.167 2.276-.5 3.173s-.8 1.637-1.398 2.223-1.307 1.022-2.127 1.31-1.71.43-2.672.43c-2.426 0-4.27-.802-5.528-2.407s-1.89-4.107-1.89-7.506.627-5.897 1.88-7.497 3.052-2.4 5.396-2.4zm0 3.533c-.913 0-1.578.375-1.994 1.125s-.66 1.816-.73 3.2h5.028c0-1.384-.185-2.45-.554-3.2s-.952-1.125-1.75-1.125zM861.084 340.052c.27 0 .516.018.738.053s.416.07.58.105c.188.047.346.094.475.14v4.167h-1.547c-.47 0-.917.07-1.345.21s-.803.38-1.125.713-.58.78-.773 1.336-.29 1.257-.29 2.1v10.548h-4.307v-18.932h3.586l.51 2.76h.21c.13-.398.282-.788.458-1.17s.396-.72.66-1.02.57-.54.922-.728.768-.282 1.248-.282zM879.787 334.287c.914 0 1.775.123 2.584.37s1.513.626 2.11 1.142 1.07 1.177 1.415 1.985.52 1.78.52 2.918c0 1.09-.18 2.14-.537 3.146s-.814 1.974-1.37 2.9-1.173 1.8-1.847 2.627-1.33 1.603-1.968 2.33-1.222 1.4-1.75 2.02-.913 1.178-1.16 1.67h8.737v4.025h-14.134v-.86c0-.962.135-1.864.404-2.708s.627-1.644 1.072-2.4.952-1.478 1.52-2.17 1.152-1.368 1.75-2.03 1.18-1.324 1.75-1.986 1.074-1.342 1.52-2.04.803-1.42 1.072-2.17.404-1.547.404-2.39c0-.294-.035-.596-.105-.906s-.19-.598-.36-.86-.4-.48-.694-.65-.663-.256-1.108-.256-.826.103-1.143.308-.575.478-.774.817-.343.736-.43 1.188-.133.93-.133 1.433v1.478h-4.43c-.023-.117-.04-.246-.053-.387-.035-.245-.053-.597-.053-1.054 0-1.324.193-2.458.58-3.4s.91-1.72 1.573-2.33 1.427-1.055 2.294-1.336 1.782-.423 2.743-.423zM895.818 334.287c1.102 0 2.095.196 2.98.59s1.63 1.07 2.24 2.038 1.078 2.276 1.406 3.93.492 3.73.492 6.24-.164 4.584-.492 6.23-.797 2.953-1.406 3.92-1.356 1.646-2.24 2.04-1.88.588-2.98.588c-1.113 0-2.112-.196-2.997-.59s-1.634-1.07-2.25-2.038-1.083-2.273-1.405-3.92-.483-3.724-.483-6.23.16-4.59.483-6.24.79-2.963 1.406-3.93 1.366-1.646 2.25-2.04 1.885-.588 2.998-.588zm0 3.638c-.55 0-.996.158-1.336.475s-.606.8-.8 1.45-.325 1.47-.396 2.46-.105 2.16-.105 3.508v2.514c0 1.348.036 2.517.106 3.507s.202 1.81.396 2.46.46 1.134.8 1.45.785.475 1.336.475.996-.158 1.336-.475.606-.8.8-1.45.322-1.47.387-2.46.098-2.16.098-3.508v-2.514c0-1.348-.032-2.517-.097-3.507s-.192-1.81-.386-2.46-.46-1.134-.8-1.45-.785-.475-1.336-.475zM915.33 355.785h5.08v3.64h-14.94v-3.64h5.536v-15.398h-5.572v-2.883c.504-.06 1.084-.167 1.74-.325s1.336-.36 2.04-.607 1.4-.524 2.09-.835 1.325-.647 1.9-1.01h2.126v21.057zM934.982 338.75h-8.12l-.37 5.837c.363-.293.826-.568 1.39-.826s1.276-.386 2.144-.386c.832 0 1.614.16 2.347.483s1.37.812 1.916 1.468.972 1.485 1.282 2.487.466 2.183.466 3.542-.167 2.566-.5 3.62-.815 1.946-1.442 2.673-1.39 1.277-2.285 1.652-1.9.562-3.014.562c-1.102 0-2.1-.188-2.997-.563s-1.662-.912-2.295-1.61-1.122-1.546-1.468-2.548-.52-2.13-.52-3.384h4.5c0 .68.063 1.298.186 1.854s.305 1.03.545 1.424.53.694.87.905.732.317 1.178.317c.41 0 .785-.103 1.125-.308s.634-.514.88-.924.437-.923.57-1.538.203-1.327.203-2.136c0-.715-.064-1.35-.193-1.907s-.308-1.025-.536-1.406-.495-.67-.8-.862-.64-.29-1.002-.29c-.656 0-1.195.2-1.617.598s-.768.896-1.037 1.494l-4.184-.58.826-13.676h11.953v4.027z"/></g><path fill="#fff" d="M902.415 281.105c-5.935-4.758-11.855-9.692-17.235-15.076-2.282-2.285-9.34-9.878-13.136-14.946 4.94-3.525 9.27-7.867 12.565-13.033 5.81-9.11 9.502-22.4 3.073-32.155-6.396-9.704-18.748-12.396-29.51-9.924-5.992 1.377-11.81 4.016-16.706 7.746-.937.714-3.735 2.61-3.26 4.17.567 1.858 3.38 1.118 4.378.428 1.683-1.162 2.068-3.53 3.7-4.58 2.948-1.898 8.163-3.005 10.167-3.043 13.344-.255 21.747 7.512 21.887 20.254.138 12.71-8.327 27.415-20.2 32.488-1.002.43-2.632 1.07-4.063 1.91-.49-3.213-.875-6.44-1.136-9.683-.315-3.928-.443-7.89-.353-11.827.09-3.98.902-8.217.323-12.156-.42-2.854-5.646.162-6.286 1.606-2.226 5.016-2.973 10.96-3.092 16.79-.243.055-.466.112-.652.162-2.868.768-5.745 1.498-8.627 2.21-5.582-21.64-8.688-43.882-9.29-66.233-.008-.352.052-1.172-.445-1.38l-1.442-.606c-.497-.21-1.164-.307-1.846-.075-1.12.383-6.194 2.685-7.365 3.395-.376.228-.62.692-.763 1.254-5.202 20.585-8.922 41.697-12.81 62.563-.518 2.787-1.027 5.576-1.53 8.365-3.22.53-6.45 1.018-9.68 1.478-.176-2.178-.352-4.357-.526-6.534-.513-6.385-.87-12.776-1.15-19.174-.268-6.117-.01-12.662-1.513-18.608-.677-2.677-6.07 1.087-6.428 2.6-1.492 6.304-1.256 13.246-1.195 19.71.06 6.454.283 12.91.62 19.354.07 1.358.16 2.71.255 4.06-4.823.687-9.73 1.333-14.585 1.5.09-4.047.18-8.093.3-12.134.477-16.358.954-32.715 1.4-49.075.11-4.038-8.235-.86-8.524 2.544-1.257 14.806-2.074 29.594-2.432 44.438-3.593-.21-7.046.38-10.613 2.017-3.987 1.83-9.105 5.234-9.702 10.023-1.087 8.717 11.563 9.344 20.022 8.953-.015 10.947.317 21.904 1.696 32.716.39 3.064 5.783.46 6.01-1.793 1.052-10.514 1.435-21.09 1.7-31.674 5.08-.485 10.147-1.052 15.202-1.704.896 9.465 2.34 18.802 4.2 28.206.69 3.485 8.382.267 8.102-2.62-.872-8.978-1.633-17.978-2.366-26.977 2.717-.41 5.43-.85 8.14-1.31-2.788 15.85-5.31 31.736-7.537 47.68-.054.385.198.79.727.663 1.445-.35 4.67-1.16 4.88-2.322 2.81-15.764 5.737-31.515 8.815-47.233 6.027-1.11 12.033-2.34 18.018-3.68.09.35.175.7.267 1.05 3.122 11.852 6.815 23.73 11.697 34.986 10.726 24.728 31.34 23.093 40.978 17.457 2.96-1.732 5.51-3.977 7.293-6.666 1.417-2.14-1.997-.804-2.994-.33-4.697 2.224-18.957 6.107-28.128-7.62-6.844-10.244-10.41-23.192-13.98-34.865-.723-2.368-1.405-4.747-2.068-7.13.558-.142 1.118-.28 1.675-.422 1.756-.45 4.184-1.334 6.212-2.556.044 1.596.12 3.162.21 4.672.51 8.613 2.443 17.064 5.738 25.03 1.115 2.7 8.408-.923 7.697-3.753-.928-3.698-1.738-7.424-2.417-11.172.098-.028.19-.055.278-.082 2.87-.9 5.695-2.006 8.426-3.315 1.212 2.773 3.402 5.487 5.132 7.725 2.33 3.015 4.88 5.88 7.534 8.61 5.293 5.442 11.104 9.98 17.718 13.704 1.964 1.11 10.306-3.642 8.547-5.052zm-147.22-36.24c-.05 2.932-.1 5.87-.136 8.812-3.386-.518-7.437-1.73-8.468-4.84-.248-.75-.286-1.568-.14-2.346.152-.82 1.496-1.584 2.807-1.58 1.38.002 2.77.11 4.148.184.565.03 1.175-.08 1.787-.266v.037zm50.575 3.656c.72-3.63 1.438-7.262 2.175-10.888 2.086-10.25 4.403-20.45 6.74-30.644.263 2.53.548 5.056.875 7.577 1.35 10.39 3.258 20.706 5.698 30.895-5.144 1.11-10.308 2.127-15.488 3.06zm-114.893 35.715c-4.905 3.84-11.572 6.645-17.886 5.418-5.322-1.034-8.81-5.206-10.873-9.99-9-20.86-4.402-45.837 2.416-66.573.755-2.298 3.91-3.848 6.067-4.35 1.055-.244 5.167-.597 4.646 1.74-2.267 10.174-4.023 20.507-4.787 30.907-.48 6.518-.415 13.098.47 19.58.803 5.866 2.103 13.15 6.052 17.85 9.2 10.953 14.883-11.98 15.41-17.87.64-7.154.26-14.488-.703-21.595-.847-6.252-1.84-13.577-6.503-18.268-2.23-2.245 3.938-4.987 5.823-3.946 6.067 3.35 7.888 10.146 9.264 16.48 1.558 7.17 2.526 14.54 2.456 21.887-.102 10.754-3.057 21.845-11.853 28.73zm37.576-64.29c-2.008 0-5.07 2.884-7.416 11.61-1.88 6.995-2.633 14.35-2.098 21.576.517 6.997 2.04 14.51 5.508 20.683 5.177 9.213 14.64 4.82 17.01 2.696 1.53-1.373 3.205-.99 2.838.17-1.757 5.558-6.718 8.812-11.31 10.563-4.825 1.84-10.55 2.566-15.082-.42-8.45-5.57-10.816-17.898-11.586-27.248-.878-10.665.925-21.34 4.8-31.335 3.308-8.53 10.077-16.97 16.642-19.205 6.566-2.235 11.496 1.655 13.217 3.443 1.734 1.8 3.136 3.962 4.183 6.292 2.746-1.4 5.805-2.246 5.654-.574-.444 4.93-2.106 9.698-3.84 14.313-1.007 2.68-12.374 8.202-12.29 4.665.237-10.194-2.905-17.23-6.23-17.23zm236.265 48.548c-2.41 9.91-8.314 18.347-17.193 23.326-13.32 7.468-27.26 6.67-41.414 1.522-1.33-.484 2.677-2.88 3.18-3.16 1.55-.872 5.208-2.438 7.074-1.772 6.532 2.33 13.866 4.314 20.86 3.197 6.036-.965 11.564-6.112 12.975-8.424 4.956-8.128 6.29-17.824 5.063-27.154-1.98-15.038-11.733-26.066-25.248-32.377-6.115-2.856-14.558-7.19-14.9-15.02-.298-6.864 4.894-11.916 10.523-14.878 6.823-3.59 14.93-4.79 22.13-1.536 5.582 2.522 10.39 7.603 12.162 13.51.222.74-3.99 2.628-4.26 2.078-3.57-7.296-11.872-12.205-19.742-13.302-5.416-.755-9.8 1.94-10.823 4.285-1.51 3.46-1.363 7.053.713 10.22 4.88 7.45 13.68 9.22 20.807 13.71 6.032 3.8 11.25 8.875 14.604 15.213 4.844 9.157 5.927 20.528 3.488 30.56zm71.805-56.027c-11.992 5.028-23.99 8.643-36.14 10.188-.995 10.39-2.11 20.77-3.192 31.152-1.36 13.037-1.814 26.676-4.985 39.418-.5 2.003-8.42 5.825-8.56 3.257-.362-6.63.617-13.42 1.376-20.01.728-6.314 1.557-12.62 2.348-18.926 1.428-11.388 2.855-22.774 4.38-34.15-6.065.262-12.176-.022-18.352-.94 4.795 7.642 5.077 18.222.5 26.168-.42.73-2.87 1.358-4.047 1.815-.36.14-.49-.19-.425-.467 1.473-6.227 2.17-12.163-.138-18.38-2.133-5.744-6.253-10.324-11.81-12.814-.286-.128-.564-.59-.13-.886.87-.595 5.857-3.64 6.954-3.39 23.81 5.415 50.796-2.736 65.042-8.057 2.124-.794 9.048 5.24 7.18 6.023zm-105.395 53.99c-1.42 3.99-5.425 8.196-9.928 8.526-5.12.374-10.658-4.954-13.228-8.875-.885-1.35-1.622-2.792-2.238-4.295 2.105-.698 4.12-1.636 5.95-2.736 9.914-5.97 20.333-21.532 14.21-33.365-3.104-5.994-10.084-6.965-16.01-5.018-7.293 2.397-12.693 8.096-14.9 15.414-.842 2.792-1.447 5.81-1.78 8.92-.91.187-1.99.648-2.36 1.063-4.456 5-8.014 12.214-.017 15.642 1.212.52 2.47.88 3.748 1.106 1.606 5.592 4.436 10.673 8.773 14.41 5.943 5.124 12.843 5.943 19.982 2.957 6.648-2.78 14.005-8.06 15.936-15.387 1.075-4.08-7.236-.897-8.138 1.64zM892.984 247.8c-.14 2.673-.072 5.386.227 8.062-2.843-2.36-1.947-5.38-.226-8.062zm11.39 9.903c-.815-3.138-1.217-6.4-1.358-9.54-.266-5.924-.055-12.85 2.77-18.203 1.405-2.658 3.22-4.62 6.436-3.882 2.365.542 4.172 2.316 5.222 4.438 2.257 4.563 1.372 10.28-.558 14.787-2.33 5.44-6.326 10.9-12.362 12.37-.047.013-.1.02-.15.03zM588.05 294.678c-4.798-1.018-9.183-2.844-12.875-6.13-3.87-3.445-5.632-6.917-5.898-12.057-.162-3.125 11.208-8.718 12.998-5.574 1.264 2.218 2.718 4.245 4.336 6.06 1.875-24.52 5.485-69.843 6.29-79.927-3.513.94-7.01 1.947-10.48 3.04-2.53.8-5.063 1.785-7.61 2.724.62 1.053 1.265 2.164 1.586 2.768 4.728 8.89 3.213 15.213 1.873 16.502-.444.426-1.332.332-1.784-.14-2.196-2.29-3.36-5.57-5.175-8.195-1.7-2.46-4.653-7.534-7.795-8.09-3.465-.613.43-4.257 1.647-4.938 6.86-3.836 14.797-6.046 22.296-8.33 7.057-2.15 14.183-4.08 21.378-5.71 11.005-2.49 28.586-7.187 35.697 5.105 4.724 8.166-2.064 15.963-9.313 21.71 9.77 6.14 17.133 15.583 19.218 27.112 6.197 34.26-30.058 61.78-66.39 54.067zm32.72-78.52c6.77-4.412 18.196-12.82 9.03-21.023-7.474-6.69-20.25-2.385-29.187-.06l-.388 30.303c2.757-.868 5.53-1.694 8.222-2.77 4.316-1.723 8.433-3.914 12.324-6.45zm5.827 3.417c-5.638 3.69-11.65 6.742-17.88 9.296-2.738 1.124-5.625 2.272-8.577 3.15-.254 20.055-.532 42.492-.644 53.248 2.63.752 5.443 1.114 8.432 1.003 9.075-.337 18.446-3.872 24.85-10.418 16.1-16.46 9.834-42.22-5.36-56.817-.28.186-.557.366-.82.54z"/></g></svg>