<svg xmlns="http://www.w3.org/2000/svg" viewBox="0 0 1600 720" enable-background="new 0 0 1600 720"><g><circle fill="#FFB205" cx="1040" cy="418.906" r="171"/><circle fill="#E5C285" cx="2096.614" cy="-93.096" r="171"/><circle fill="#E16F71" cx="-458.456" cy="291.906" r="68.597"/><path fill="#4BEA6A" d="M1730.614 145.41h166v166h-166z"/><path fill="#D9F498" d="M1730.614 311.41h165.562v165.562h-165.562z"/><path fill="#fff" d="M1572.4 465.61c.995-4.647 1.53-9.466 1.53-14.41 0-37.462-30.033-67.89-67.332-68.565-18.324-51.955-67.844-89.19-126.07-89.19-44.886 0-84.602 22.13-108.84 56.07-15.69-5.19-32.46-8.01-49.89-8.01-54.172 0-101.997 27.146-130.64 68.568h-50.65c-32.612 0-59.537 25.516-61.843 57.566h-23.047c-7.803 0-15.1 2.26-21.282 6.146-7.823-24.605-30.848-42.436-58.045-42.436-3.23 0-6.4.257-9.496.742-18.22-21.26-45.266-34.733-75.46-34.733-.91 0-1.815.014-2.72.038-28.94-38.77-75.177-63.874-127.28-63.874-27.022 0-52.463 6.76-74.736 18.67-18.424-9.577-39.356-14.996-61.556-14.996-22.68 0-44.034 5.656-62.745 15.624-34.464-44.095-88.14-72.443-148.443-72.443-72.77 0-135.892 41.283-167.24 101.704-9.328-2.898-19.243-4.46-29.523-4.46-25.028 0-47.893 9.26-65.363 24.534-7.29-1.18-14.77-1.8-22.393-1.8-10.065 0-19.876 1.076-29.335 3.105V720h1600V483.8c-6.074-9.517-16.03-16.345-27.6-18.19z"/></g></svg>